<svg width="1920" height="949" viewBox="0 0 1920 949" fill="none" xmlns="http://www.w3.org/2000/svg">
<path fill-rule="evenodd" clip-rule="evenodd" d="M999.551 438.181L1005.84 443.645C1009.31 446.645 1015.69 451.742 1020.04 454.951C1024.38 458.16 1029 461.496 1030.33 462.366C1032.48 463.771 1027.11 463.908 979.432 463.604C950.114 463.425 899.46 463.792 866.859 464.422C834.258 465.061 800.513 465.817 791.859 466.11C783.206 466.404 756.541 467.578 732.594 468.722C708.647 469.865 677.262 471.511 662.839 472.382C648.416 473.252 623.399 474.899 607.245 476.053C591.091 477.196 563.714 479.314 546.406 480.751C529.099 482.188 501.952 484.558 486.092 486.016C470.221 487.463 440.253 490.526 419.484 492.802C398.715 495.077 379.834 497.186 377.526 497.469C375.218 497.762 371.442 498.234 369.134 498.517C366.827 498.79 363.051 499.241 360.743 499.503C358.435 499.766 350.883 500.741 343.96 501.664C337.037 502.597 329.726 503.562 327.701 503.824C325.677 504.086 316.477 505.272 307.247 506.446C298.016 507.621 282.198 509.771 272.107 511.218C262.006 512.666 244.551 515.214 233.296 516.882C222.041 518.56 207.649 520.689 201.303 521.633C194.957 522.576 168.524 526.856 142.562 531.155C116.601 535.445 92.0555 539.955 88.017 541.161C83.9786 542.367 77.8423 544.758 74.3808 546.489C70.9192 548.219 64.7829 552.121 60.7445 555.173C56.706 558.225 51.241 563.248 48.6082 566.342C45.9753 569.436 42.2201 574.323 40.2795 577.207C38.3285 580.092 35.4649 585.283 33.9229 588.744C32.381 592.205 30.2726 598.099 29.2341 601.854C27.6293 607.654 27.2831 614.198 26.9055 645.903C26.5698 675.289 26.7901 685.012 27.9964 692.049C28.8355 696.947 30.839 704.267 32.4439 708.305C34.0488 712.343 37.6047 719.181 40.353 723.512C43.1012 727.833 49.0487 734.933 53.5697 739.286C58.0906 743.638 65.0976 749.165 69.136 751.578C73.1745 753.99 80.0136 757.157 84.3457 758.625C89.066 760.22 109.646 764.215 135.744 768.589C159.681 772.606 191.548 777.755 206.548 780.052C221.548 782.338 250.813 786.586 271.582 789.491C292.352 792.396 326.337 796.895 347.107 799.486C367.876 802.087 388.876 804.677 393.785 805.265C398.694 805.841 409.666 807.037 418.173 807.918C426.68 808.789 440.368 810.204 448.592 811.054C456.816 811.914 475.812 813.781 490.812 815.218C505.812 816.644 532.487 819.004 550.077 820.461C567.668 821.909 591.983 823.807 604.098 824.688C616.213 825.569 641.472 827.216 660.217 828.348C678.961 829.491 704.451 830.897 716.86 831.484C729.269 832.071 751.213 833.026 765.636 833.603C780.059 834.19 809.566 835.123 831.195 835.69C852.824 836.267 891.771 837.001 917.733 837.336C943.694 837.661 994.673 837.441 1031.02 836.833C1067.36 836.225 1110.56 835.249 1127 834.662C1143.43 834.075 1172.24 832.889 1190.98 832.019C1209.73 831.159 1237.11 829.743 1251.82 828.883C1266.54 828.013 1295.32 826.114 1315.81 824.667C1336.29 823.209 1369.34 820.608 1389.23 818.888C1409.13 817.158 1443.83 813.886 1466.33 811.599C1488.83 809.313 1519.27 806.009 1533.99 804.258C1548.7 802.506 1572.06 799.654 1585.91 797.913C1599.76 796.182 1623.36 793.088 1638.36 791.064C1653.36 789.03 1677.9 785.516 1692.9 783.261C1707.9 781.006 1733.63 777.011 1750.07 774.389C1766.51 771.767 1791.06 767.676 1804.62 765.306C1818.17 762.936 1832.57 759.852 1836.61 758.468C1840.65 757.084 1846.78 754.346 1850.25 752.385C1853.71 750.424 1859.21 746.554 1862.48 743.775C1865.74 740.995 1870.27 736.591 1872.56 734C1874.83 731.399 1878.55 726.449 1880.8 722.988C1883.06 719.527 1886.14 713.622 1887.67 709.878C1889.19 706.123 1891.22 699.285 1892.16 694.671C1893.63 687.539 1893.84 680.313 1893.52 646.427C1893.18 608.021 1893.08 606.311 1890.72 599.232C1889.39 595.194 1886.75 588.817 1884.86 585.073C1882.97 581.319 1879.31 575.424 1876.73 571.964C1874.14 568.503 1869.48 563.353 1866.38 560.521C1863.27 557.69 1857.67 553.379 1853.92 550.935C1850.16 548.481 1844.04 545.283 1840.28 543.814C1836.52 542.335 1831.57 540.657 1829.27 540.07C1826.96 539.483 1806.89 535.948 1784.69 532.215C1762.48 528.492 1731.56 523.51 1715.98 521.15C1700.4 518.78 1679.63 515.696 1669.83 514.281C1660.02 512.865 1636.18 509.603 1616.85 507.023C1597.53 504.443 1565.67 500.437 1546.05 498.098C1526.44 495.77 1494.57 492.225 1475.25 490.222C1455.93 488.218 1424.29 485.156 1404.97 483.415C1385.65 481.674 1354.01 479.063 1334.69 477.615C1315.37 476.157 1284.44 474.049 1265.98 472.906C1247.52 471.774 1216.84 470.117 1197.8 469.215C1178.76 468.313 1160.12 467.442 1156.37 467.274C1152.61 467.107 1172.68 466.876 1252.35 466.572L1250.77 446.634H1256.28C1259.31 446.634 1275.95 447.578 1293.26 448.721C1310.56 449.875 1340.07 452.015 1358.81 453.472C1377.56 454.941 1408.48 457.552 1427.52 459.293C1446.56 461.024 1477.71 464.086 1496.75 466.1C1515.79 468.103 1547.18 471.627 1566.51 473.934C1585.83 476.241 1619.35 480.489 1640.98 483.384C1662.61 486.278 1697.78 491.26 1719.13 494.459C1740.47 497.647 1778.71 503.751 1804.09 507.998C1829.48 512.256 1853.08 516.724 1856.54 517.93C1860 519.147 1866.37 522.052 1870.7 524.391C1875.02 526.74 1881.4 530.904 1884.86 533.641C1888.32 536.389 1893.57 541.413 1896.52 544.811C1899.48 548.209 1903.86 554.05 1906.26 557.805C1908.66 561.549 1912.09 568.156 1913.86 572.488C1915.65 576.809 1917.78 583.657 1918.6 587.695C1919.84 593.694 1920.05 606.143 1919.47 716.695L1916.29 725.61C1914.55 730.508 1911.41 737.587 1909.33 741.341C1907.24 745.086 1902.78 751.641 1899.4 755.899C1896.02 760.157 1889.48 766.68 1884.86 770.393C1880.25 774.105 1872.22 779.213 1867.03 781.73C1861.84 784.247 1854.76 787.026 1851.29 787.886C1847.83 788.757 1829.42 792.071 1810.39 795.259C1791.35 798.448 1762.08 803.188 1745.35 805.779C1728.62 808.38 1698.41 812.847 1678.22 815.721C1658.03 818.595 1624.51 823.073 1603.74 825.684C1582.97 828.296 1551.35 832.082 1533.46 834.096C1515.58 836.109 1486.79 839.172 1469.48 840.902C1452.17 842.643 1426.91 845.129 1388.71 848.841H960.74C558.144 848.841 531.616 848.726 513.364 846.975C502.697 845.947 477.197 843.451 456.721 841.427C436.246 839.402 404.851 836.099 386.966 834.096C369.082 832.082 339.344 828.537 320.883 826.219C302.421 823.901 266.076 818.983 240.114 815.291C214.153 811.599 179.223 806.429 162.492 803.786C145.761 801.143 118.269 796.633 101.391 793.76C80.0031 790.12 68.0871 787.572 62.0556 785.348C57.2934 783.607 51.2725 780.922 48.6816 779.402C46.0907 777.881 41.6012 774.892 38.7166 772.752C35.832 770.623 30.3775 765.631 26.5908 761.667C22.8041 757.692 18.2517 752.322 16.4685 749.732C14.6748 747.131 11.2972 740.995 8.94755 736.098C6.59791 731.189 3.86016 724.351 2.84268 720.89C1.21682 715.3 0.975561 707.98 0.671367 655.342C0.388152 606.972 0.597941 594.733 1.82521 588.744C2.65387 584.706 4.64687 578.099 6.25176 574.061C7.85664 570.023 11.0979 563.489 13.4475 559.535C15.8076 555.592 20.3391 549.341 23.5069 545.65C26.6852 541.958 32.5803 536.315 36.6187 533.096C40.6572 529.886 48.2096 525.177 53.4018 522.639C58.5941 520.101 65.6745 517.301 69.136 516.431C72.5975 515.55 92.1814 512.026 112.667 508.586C133.153 505.146 163.835 500.206 180.849 497.595C197.863 494.983 226.667 490.736 244.834 488.156C263.002 485.576 294.869 481.328 315.638 478.716C336.407 476.095 363.554 472.791 375.953 471.354C388.351 469.928 409.833 467.568 423.68 466.1C437.526 464.642 463.959 462.02 482.42 460.289C500.882 458.548 517.046 457.133 518.347 457.133C520.099 457.122 520.707 457.73 520.707 461.842L569.745 460.95C596.714 460.457 619.14 459.87 619.57 459.639C620 459.408 620.357 457.091 620.357 454.5C620.357 451.668 620.881 449.592 621.668 449.319C622.392 449.057 640.203 447.882 661.266 446.697C682.328 445.512 708.993 444.086 720.531 443.519C732.069 442.964 755.671 441.978 772.978 441.338C790.286 440.688 818.366 439.807 835.391 439.366C852.415 438.936 896.313 438.485 999.551 438.181V438.181ZM1131.08 440.457C1133.91 440.677 1136.5 441.097 1136.84 441.39C1137.17 441.674 1138.85 446.865 1140.58 452.927C1142.31 458.978 1143.73 464.527 1143.75 465.25C1143.77 466.184 1141.53 466.561 1128.05 466.561L1128.68 461.579C1129.01 458.842 1128.79 453.997 1128.17 450.829C1127.55 447.652 1126.8 443.928 1126.49 442.555C1125.95 440.132 1126.11 440.058 1131.08 440.457V440.457Z" fill="#E2E2E2"/>
<path d="M868.285 2.00413C889.548 1.50072 907.254 0.756084 907.621 0.336572C907.988 -0.0724521 916.317 -0.114403 926.124 0.242182C935.932 0.598767 949.379 1.57413 956.019 2.40267C962.659 3.2312 976.578 5.32876 986.963 7.08023C997.348 8.8212 1016.94 11.9046 1030.49 13.9288C1044.05 15.9634 1066.47 19.0363 1080.32 20.7773C1094.17 22.5078 1114.46 24.8675 1125.42 26.0107C1136.39 27.1539 1157.63 29.0417 1172.63 30.1953C1187.63 31.3595 1211 32.7963 1224.55 33.3836C1238.1 33.9814 1260.53 34.4639 1299.55 34.4534L1290.63 43.5568C1285.73 48.57 1282.73 51.989 1283.98 51.1709C1285.23 50.3424 1291.84 45.8431 1298.67 41.1551C1305.5 36.4775 1313.45 31.4644 1316.33 30.0066C1319.22 28.5592 1326.07 25.9373 1331.54 24.1858C1337.02 22.4344 1345.75 20.148 1350.95 19.0992C1357.72 17.7463 1365.13 17.2114 1377.17 17.2114C1389.22 17.2219 1396.47 17.7463 1402.87 19.0992C1407.77 20.1271 1415.8 22.319 1420.7 23.9656C1425.6 25.6122 1462.19 42.4766 1574.37 95.8909L1575.09 103.715C1575.47 108.025 1576.75 114.15 1577.93 117.317C1579.1 120.495 1581.62 125.404 1583.51 128.246C1585.41 131.088 1589.09 135.252 1591.68 137.496C1594.27 139.751 1598.53 142.813 1601.12 144.303C1603.71 145.802 1608.79 148.131 1612.4 149.473C1616.01 150.826 1618.96 151.812 1618.98 151.665C1619.01 151.518 1616.33 149.515 1613.05 147.208C1609.76 144.9 1604.53 140.181 1601.4 136.72C1598.28 133.259 1594.11 127.124 1592.14 123.086C1590.18 119.048 1587.85 112.913 1586.97 109.452C1586.09 105.991 1585.38 99.268 1585.38 94.5065C1585.39 86.7351 1585.58 85.917 1587.22 86.4519L1589.21 87.112C1591.77 87.9657 1596.35 89.4861 1601.12 91.077C1607.76 93.2899 1618.61 96.3104 1625.25 97.7997C1631.89 99.2785 1642.26 101.208 1648.32 102.079C1654.39 102.939 1666.19 103.987 1689.76 105.141L1706.54 115.996C1715.77 121.974 1732.91 132.619 1744.64 139.657C1756.35 146.694 1768.39 154.602 1771.39 157.234C1774.46 159.94 1778.08 164.492 1779.71 167.722C1781.31 170.858 1782.61 174.843 1782.61 176.574C1782.61 178.304 1781.78 181.482 1778.92 187.544L1801.99 209.757C1814.69 221.975 1825.23 232.484 1825.42 233.113C1825.61 233.743 1824.55 236.029 1823.06 238.189C1821.57 240.35 1818.82 242.888 1816.94 243.821C1814.85 244.87 1812.42 245.269 1810.65 244.87C1808.39 244.367 1807.74 243.591 1807.68 241.336C1807.62 239.469 1807.06 240.581 1806.11 244.482C1805.29 247.796 1804.14 251.456 1803.57 252.61C1802.97 253.806 1796.78 257.518 1789.17 261.263C1781.81 264.87 1775.56 267.943 1775.27 268.111C1774.96 268.268 1774.15 266.611 1773.46 264.44C1772.76 262.259 1770.37 257.644 1768.13 254.183C1765.91 250.722 1762.34 246.359 1760.22 244.482C1758.1 242.605 1754.59 240.172 1752.43 239.07C1750.27 237.969 1745.43 236.459 1741.68 235.735C1736.36 234.697 1733.88 234.676 1730.4 235.641C1727.77 236.375 1724.88 238.168 1723.32 240.025C1721.19 242.584 1720.7 244.293 1720.71 249.202C1720.72 253.439 1721.52 256.942 1723.4 261C1724.86 264.168 1727.58 268.342 1729.42 270.272C1731.25 272.191 1734.65 274.76 1736.96 275.966C1740.48 277.812 1742.79 278.137 1751.38 277.97C1757 277.865 1762.08 278.022 1762.66 278.305C1763.24 278.588 1762.36 280.361 1760.72 282.238C1758.62 284.64 1757.88 286.423 1758.21 288.269C1758.47 289.716 1757.99 292.306 1757.13 294.037C1756.28 295.767 1752.81 299.7 1749.42 302.784C1746.02 305.867 1740.66 309.643 1737.48 311.174C1733.02 313.334 1730.17 313.953 1724.9 313.932C1720.7 313.911 1716.67 313.219 1714.41 312.128C1712.39 311.153 1707.43 307.482 1703.39 303.969C1698.99 300.141 1692.27 295.757 1686.61 292.999C1681.42 290.471 1667.73 285.28 1656.19 281.462C1644.65 277.644 1631.91 272.789 1627.87 270.681C1623.43 268.363 1617.79 264.126 1613.62 259.994C1609.42 255.809 1605.69 250.89 1604.06 247.366C1602.59 244.199 1600.75 238.997 1599.98 235.83C1599.2 232.662 1598.55 225.101 1598.54 219.049C1598.52 212.998 1598.82 205.205 1599.94 195.452L1597.46 200.695C1596.09 203.58 1594.17 209.484 1593.19 213.805C1591.95 219.248 1591.53 224.755 1591.81 231.708C1592.17 240.948 1592.55 242.447 1596.55 250.586C1600.01 257.634 1602.45 260.895 1608.61 266.685C1612.86 270.681 1615.39 273.596 1614.23 273.166C1613.08 272.747 1605.28 270.272 1596.92 267.671C1588.56 265.07 1573.69 260.895 1563.88 258.389C1554.08 255.882 1539.91 252.788 1532.41 251.509C1524.1 250.093 1514.07 249.17 1506.72 249.128C1497.4 249.086 1493.7 249.495 1490.46 250.911C1488.15 251.928 1477.29 257.854 1466.33 264.094C1455.37 270.324 1441.45 277.907 1435.39 280.938C1429.32 283.958 1419.42 288.457 1413.36 290.912C1407.3 293.376 1397.15 297.057 1390.81 299.092C1384.46 301.137 1374.32 303.822 1368.25 305.06C1362.19 306.308 1351.82 307.587 1333.12 308.521L1343.2 297.603C1348.73 291.604 1355.76 283.392 1358.79 279.354C1361.84 275.316 1365.21 270.24 1366.29 268.08C1367.37 265.919 1368.28 263.559 1368.3 262.836C1368.32 262.112 1363.48 266.244 1357.54 272.023C1351.61 277.791 1327.17 298.84 1303.22 318.788C1279.27 338.746 1253.55 360.446 1246.05 367.022C1238.55 373.587 1226.75 384.641 1219.83 391.563C1212.91 398.495 1205.21 407.232 1202.72 410.976C1200.22 414.731 1197.95 418.978 1197.64 420.415C1197.35 421.862 1197.26 423.11 1197.45 423.205C1197.64 423.299 1200.39 422.89 1203.57 422.303C1206.75 421.715 1212.87 421.474 1217.21 421.768C1221.53 422.072 1227.66 423.289 1230.84 424.474C1234.3 425.774 1238.43 428.438 1241.13 431.133C1243.61 433.598 1246.55 437.51 1247.66 439.817C1248.76 442.125 1250.15 446.613 1250.75 449.781C1251.35 452.948 1251.84 458.024 1251.82 466.561L1200.69 466.76C1172.56 466.876 1152.61 467.107 1156.37 467.274C1160.12 467.442 1178.76 468.313 1197.8 469.215C1216.84 470.117 1247.52 471.774 1265.98 472.906C1284.44 474.049 1315.37 476.158 1334.69 477.615C1354.01 479.063 1385.65 481.674 1404.97 483.415C1424.29 485.156 1455.93 488.219 1475.25 490.222C1494.57 492.225 1526.44 495.77 1546.05 498.098C1565.67 500.437 1597.53 504.443 1616.85 507.023C1636.18 509.603 1660.02 512.865 1669.83 514.281C1679.63 515.697 1700.4 518.78 1715.98 521.15C1731.56 523.51 1762.48 528.492 1784.69 532.215C1806.89 535.948 1826.96 539.483 1829.27 540.07C1831.57 540.658 1836.52 542.336 1840.28 543.814C1844.04 545.283 1850.16 548.481 1853.92 550.936C1857.67 553.379 1863.27 557.69 1866.38 560.521C1869.48 563.353 1874.14 568.503 1876.73 571.964C1879.31 575.425 1882.97 581.319 1884.86 585.073C1886.75 588.828 1889.39 595.194 1890.72 599.232C1893.08 606.311 1893.18 608.021 1893.52 646.427C1893.84 680.313 1893.63 687.539 1892.16 694.671C1891.22 699.285 1889.19 706.124 1887.67 709.878C1886.14 713.633 1883.06 719.527 1880.8 722.988C1878.55 726.449 1874.83 731.399 1872.56 734C1870.27 736.601 1865.74 740.995 1862.48 743.775C1859.21 746.554 1853.71 750.424 1850.25 752.385C1846.78 754.346 1840.65 757.084 1836.61 758.468C1832.57 759.853 1818.17 762.936 1804.62 765.306C1791.06 767.676 1766.51 771.767 1750.07 774.389C1733.63 777.011 1707.9 781.006 1692.9 783.261C1677.9 785.516 1653.36 789.03 1638.36 791.064C1623.36 793.088 1599.76 796.182 1585.91 797.913C1572.06 799.654 1548.94 802.475 1534.51 804.195C1520.09 805.904 1492 808.977 1472.1 811.012C1452.2 813.057 1422.93 815.889 1407.07 817.326C1391.2 818.752 1365.72 820.881 1350.42 822.066C1335.13 823.241 1319.32 824.447 1315.28 824.751C1311.24 825.045 1293.78 826.209 1276.47 827.321C1259.16 828.443 1230.61 830.079 1213.01 830.96C1195.41 831.841 1169.22 833.036 1154.79 833.613C1140.37 834.18 1111.11 835.165 1089.76 835.784C1068.41 836.403 1017.67 837.043 976.998 837.211C936.32 837.378 886.999 837.137 867.383 836.676C847.768 836.214 816.142 835.323 797.104 834.704C778.066 834.075 747.143 832.858 728.398 831.998C709.643 831.138 678.961 829.502 660.217 828.359C641.461 827.216 616.213 825.569 604.098 824.688C591.983 823.807 567.668 821.909 550.077 820.461C532.487 819.004 505.812 816.644 490.812 815.218C475.812 813.781 456.816 811.914 448.592 811.054L444.648 810.647C436.459 809.8 425.43 808.661 418.173 807.918C409.666 807.037 398.683 805.842 393.785 805.265C388.876 804.677 367.876 802.087 347.107 799.486C326.337 796.895 292.352 792.396 271.582 789.491C250.813 786.586 221.548 782.338 206.548 780.052C191.548 777.755 159.681 772.606 135.744 768.589C109.646 764.215 89.0659 760.22 84.3457 758.625C80.0135 757.157 73.1744 753.99 69.136 751.578C65.0975 749.165 58.0906 743.638 53.5696 739.286C49.0487 734.934 43.1012 727.844 40.3529 723.512C37.6047 719.191 34.0488 712.343 32.4439 708.305C30.839 704.267 28.8355 696.947 27.9964 692.049C26.7901 685.012 26.5698 675.289 26.9054 645.903C27.2831 614.198 27.6292 607.654 29.2341 601.854C30.2726 598.099 32.3809 592.205 33.9229 588.744C35.4648 585.283 38.3285 580.092 40.2795 577.207C42.2201 574.323 45.9753 569.436 48.6081 566.342C51.241 563.248 56.706 558.225 60.7444 555.173C64.7829 552.121 70.9192 548.219 74.3807 546.489C77.8422 544.758 83.9786 542.367 88.017 541.161C92.0554 539.955 116.601 535.445 142.562 531.156C168.524 526.856 194.957 522.577 201.303 521.633C207.649 520.689 222.041 518.56 233.296 516.882C244.541 515.214 262.006 512.666 272.107 511.218C282.198 509.771 298.016 507.621 307.247 506.446C316.477 505.272 325.677 504.087 327.701 503.824C329.715 503.562 337.037 502.597 343.96 501.664C350.883 500.741 358.435 499.766 360.743 499.503C363.05 499.241 366.827 498.79 369.134 498.518C371.442 498.234 375.218 497.762 377.526 497.469C379.834 497.186 398.715 495.078 419.484 492.802C440.253 490.526 470.221 487.463 486.092 486.016C501.952 484.558 529.098 482.188 546.406 480.751C563.714 479.314 591.091 477.196 607.245 476.053C623.399 474.899 648.416 473.252 662.839 472.382C677.262 471.511 708.646 469.865 732.594 468.722C756.541 467.579 783.205 466.404 791.859 466.11C800.513 465.817 834.258 465.061 866.859 464.422C899.46 463.792 950.114 463.425 979.432 463.604C1027.12 463.908 1032.48 463.771 1030.31 462.366C1028.97 461.496 1023.16 457.269 1017.39 452.948C1011.61 448.638 1000.99 439.199 993.76 431.972C986.544 424.757 975.907 412.948 970.128 405.732C964.358 398.527 956.502 388.144 952.673 382.659C948.855 377.174 942.572 367.504 931.715 349.622L936.467 340.183C939.079 334.992 942.047 327.913 943.065 324.452C944.261 320.33 944.9 314.53 944.911 307.671C944.921 299.69 944.355 295.295 942.53 289.317C941.208 284.996 938.46 278.379 936.435 274.634C934.4 270.89 930.813 265.216 928.463 262.049C926.103 258.882 920.366 252.4 907.243 239.039L909.866 236.91C911.303 235.735 914.848 233.386 917.733 231.676C920.617 229.977 926.282 227.764 930.32 226.779C936.341 225.31 938.89 225.174 944.481 226.076C948.236 226.674 955.075 228.74 959.691 230.67C964.904 232.841 977.806 240.654 993.781 251.32C1007.92 260.749 1024.67 270.995 1031.02 274.1C1037.36 277.204 1045.62 280.707 1056.19 284.063L1056.91 290.094C1057.29 293.418 1057.18 298.851 1056.64 302.165C1056.11 305.479 1054.61 310.408 1053.31 313.104C1052.01 315.81 1049.18 319.816 1047.02 322.018C1044.85 324.221 1038.48 329.024 1032.85 332.705C1027.23 336.376 1021.87 340.498 1020.96 341.882C1020.04 343.256 1018.99 345.563 1018.61 347C1018.24 348.448 1018.64 352.339 1019.5 355.653C1020.35 358.967 1023 365.574 1025.39 370.336C1027.77 375.097 1033.01 384.18 1037.03 390.525C1041.06 396.87 1048.01 407.253 1052.5 413.598C1056.99 419.943 1061.43 425.722 1062.36 426.445C1063.72 427.505 1065.84 427.431 1073.24 426.078C1079.43 424.946 1086.17 424.526 1093.96 424.82C1103.34 425.166 1106.55 425.722 1111.18 427.809C1114.48 429.309 1118.65 432.371 1121.14 435.14C1123.64 437.93 1126.07 442.072 1127 445.103C1127.87 447.966 1128.57 453.965 1128.57 466.561H1136.18C1140.55 466.561 1143.78 466.11 1143.78 465.512C1143.78 464.936 1141.16 454.909 1132.13 421.988L1133.91 414.647C1134.89 410.609 1137.09 403.299 1138.81 398.391C1140.53 393.493 1144.18 384.998 1146.94 379.512C1149.69 374.027 1154.11 366.602 1156.78 362.994C1159.44 359.386 1165.9 352.076 1171.15 346.738C1176.38 341.4 1183.41 333.031 1186.75 328.122C1190.08 323.224 1194.58 315.673 1196.75 311.342C1198.91 307.021 1202.25 298.756 1204.16 292.988C1206.06 287.22 1208.41 278.966 1209.36 274.634C1210.42 269.821 1211.3 259.637 1211.63 248.415C1211.92 238.326 1211.76 226.852 1210.39 215.787L1218.26 209.348C1222.58 205.793 1238.4 190.816 1253.4 176.06C1268.4 161.293 1283.73 146.809 1287.49 143.862C1291.24 140.915 1299.26 135.147 1305.32 131.036C1311.38 126.935 1315.98 123.589 1315.55 123.589C1315.12 123.6 1310.63 125.068 1305.58 126.851C1300.53 128.634 1292.86 131.843 1288.53 133.983C1284.2 136.122 1278.31 139.447 1275.42 141.356C1272.54 143.275 1262.4 152.724 1252.87 162.363C1243.35 171.99 1232.73 181.776 1229.27 184.114C1225.81 186.443 1219.2 190.229 1214.58 192.515C1209.97 194.801 1203.48 197.696 1194.13 201.22L1194.11 224.031C1194.1 237.812 1193.5 251.205 1192.6 257.854C1191.77 263.905 1190.37 270.985 1189.49 273.586C1188.61 276.187 1187.06 279.113 1186.03 280.099C1184.84 281.242 1179.61 282.668 1171.58 284.042C1164.65 285.238 1152.74 286.664 1145.09 287.241C1136.04 287.912 1126.53 287.912 1117.82 287.251C1110.47 286.685 1101.61 285.71 1098.15 285.07C1094.69 284.43 1087.61 282.721 1082.42 281.273C1077.22 279.815 1069.56 277.256 1065.37 275.578C1061.19 273.911 1053.63 270.46 1048.59 267.922C1043.54 265.395 1034.92 260.371 1029.45 256.763C1023.96 253.155 1011.93 244.524 1002.7 237.571C993.467 230.628 981.666 222.174 976.474 218.797C971.281 215.41 964.432 211.697 961.264 210.533C958.096 209.369 953.135 207.911 950.25 207.303C947.365 206.695 942.173 206.453 938.712 206.778C935.25 207.104 929.817 208.331 926.649 209.505C923.481 210.68 917.943 213.428 914.366 215.609C910.778 217.791 904.694 222.175 900.855 225.342C897.006 228.509 884.083 241.965 872.125 255.232C860.177 268.499 844.286 285.259 836.828 292.464C829.37 299.679 819.027 308.458 813.856 311.992C808.684 315.526 801.142 320.068 797.104 322.102C793.066 324.126 785.744 327.199 780.845 328.93C775.947 330.66 767.45 333.052 761.964 334.226C756.478 335.411 747.279 336.89 741.51 337.53C735.741 338.17 718.748 338.631 676.475 338.442L668.094 345.081C663.479 348.731 652.392 357.824 643.444 365.281C634.497 372.737 621.542 383.823 614.65 389.927C607.759 396.02 598.434 404.673 593.934 409.141C589.423 413.608 584.315 419.272 582.563 421.726C580.822 424.18 579.395 426.424 579.406 426.708C579.427 426.991 583.57 427.557 588.616 427.966C593.672 428.365 600.165 429.508 603.049 430.494C605.934 431.49 610.109 433.525 612.332 435.014C614.556 436.503 617.367 439.377 618.574 441.391C620.294 444.264 620.724 446.54 620.546 451.878C620.42 455.633 619.969 459.01 619.549 459.388C619.13 459.776 596.839 460.426 521.231 461.6L513.05 428.281L558.993 356.439C584.263 316.921 609.762 277.047 626.42 251.037L636.238 251.394C642.448 251.614 648.94 251.131 653.923 250.093C658.245 249.181 665.094 246.831 669.133 244.86C673.8 242.584 679.486 238.473 684.741 233.575C689.996 228.666 695.682 221.86 700.36 214.854C704.398 208.803 711.363 196.291 715.842 187.061C720.321 177.832 727.444 162.258 731.66 152.452C735.888 142.646 743.922 125.425 749.524 114.171C755.125 102.928 762.552 89.2417 766.034 83.7565C769.506 78.2819 772.254 73.6568 772.139 73.489C772.024 73.3212 766.737 74.6426 760.391 76.4465C754.045 78.2399 744.373 81.3548 738.888 83.358C733.402 85.3612 721.842 90.4897 713.188 94.7373C704.535 98.9953 692.031 106.085 685.391 110.511C678.751 114.926 668.87 122.163 663.416 126.589C657.961 131.004 648.049 140.066 641.388 146.725C634.727 153.375 624.542 164.471 618.762 171.372C612.983 178.273 603.521 190.281 597.731 198.074C591.941 205.866 582.7 218.598 577.193 226.391C571.686 234.183 561.333 248.814 554.189 258.903C547.035 269.003 536.64 282.92 531.091 289.842C525.532 296.764 515.326 308.563 508.413 316.061C501.501 323.56 491.641 333.723 486.511 338.631C481.371 343.55 472.214 351.825 466.162 357.016C460.109 362.208 449.484 370.734 442.561 375.978C435.637 381.211 424.54 389.046 417.91 393.388C411.27 397.74 401.127 404.002 395.358 407.305C389.589 410.619 380.851 415.339 375.952 417.803C371.043 420.258 361.844 424.495 355.498 427.211C349.152 429.917 337.823 434.248 330.323 436.828C322.823 439.408 310.079 443.142 302.002 445.135C293.925 447.127 280.708 449.781 272.631 451.029C260.852 452.854 253.173 453.305 233.82 453.336C215.82 453.368 206.768 452.917 198.156 451.553C191.81 450.546 182.6 448.774 177.702 447.61C172.793 446.446 162.88 443.53 155.674 441.118C148.457 438.716 135.713 433.378 127.352 429.277C118.982 425.166 106.709 418.139 100.08 413.65C93.44 409.172 83.9995 402.145 79.101 398.034C74.1919 393.923 65.7479 386.067 60.3248 380.582C54.9123 375.087 46.6886 365.878 42.0627 360.11C37.4369 354.342 32.5488 347.263 31.2061 344.378C29.6117 340.949 28.7621 337.142 28.7411 333.366C28.7201 329.087 29.4963 325.983 31.7726 321.305C33.5033 317.75 36.5872 313.565 38.8739 311.688C41.0977 309.853 44.8005 307.535 47.1081 306.528C49.5836 305.448 54.1256 304.661 58.1955 304.609C63.8913 304.535 66.157 305.07 71.2444 307.671C75.3982 309.8 78.9017 312.684 82.0275 316.586C84.5765 319.753 90.031 326.308 94.1533 331.143C98.2757 335.967 106.132 343.917 111.618 348.783C117.094 353.66 125.831 360.498 131.024 363.991C136.216 367.473 145.657 372.926 152.003 376.104C158.349 379.271 168.964 383.687 175.604 385.9C182.233 388.123 193.331 390.976 200.254 392.234C210.502 394.111 216.744 394.542 233.82 394.552C250.834 394.552 257.474 394.101 268.96 392.161C276.743 390.839 289.016 388.154 296.233 386.172C303.439 384.201 315.953 379.953 324.03 376.733C332.107 373.524 344.138 368.123 350.778 364.746C357.407 361.369 368.033 355.485 374.379 351.657C380.725 347.839 390.166 341.746 395.358 338.128C400.55 334.499 410.935 326.643 418.435 320.655C425.935 314.666 438.858 303.161 447.165 295.086C455.463 287.01 466.749 275.211 472.235 268.866C477.732 262.521 488.903 248.363 497.064 237.403C505.225 226.443 519.627 206.621 529.067 193.354C538.508 180.087 551.42 162.394 557.766 154.025C564.123 145.666 573.836 133.385 579.353 126.757C584.881 120.128 596.011 108.067 604.088 99.9602C612.175 91.8531 623.745 81.1765 629.797 76.2263C635.85 71.276 646.003 63.7248 652.35 59.4353C658.696 55.1458 668.849 48.8636 674.902 45.4656C680.954 42.0675 691.695 36.7922 698.765 33.7297C705.835 30.6778 717.636 26.1051 724.989 23.5775C732.342 21.05 744.971 17.3163 753.048 15.2712C761.125 13.2366 775.055 10.3524 783.992 8.85267C792.929 7.35291 806.859 5.40218 814.936 4.5212C823.013 3.64023 847.023 2.50755 868.285 2.00413Z" fill="#2F2F2F"/>
<path d="M0.430068 949L0.220279 898.868L0 848.747L1919.57 848.768L1920 949H0.430068Z" fill="#2F2F2F"/>
<path d="M1499.9 260.77C1502.78 259.626 1508.45 257.833 1512.48 256.763C1516.52 255.704 1520.23 254.917 1520.72 255.033C1521.21 255.138 1523.35 260.193 1525.49 266.244C1527.63 272.296 1531.75 282.217 1534.66 288.269C1537.63 294.467 1542.67 302.721 1546.21 307.147C1549.66 311.478 1558.68 321.62 1566.26 329.695C1573.84 337.771 1591.97 355.747 1606.58 369.643C1621.17 383.55 1639.72 400.928 1647.8 408.27C1655.88 415.622 1662.96 421.401 1663.53 421.128C1664.11 420.845 1671.43 420.027 1679.79 419.314C1691.45 418.307 1697.82 418.275 1707.06 419.177C1713.7 419.828 1722.43 421.369 1726.47 422.607C1730.51 423.844 1736.4 426.173 1739.58 427.777C1742.76 429.392 1747.24 432.35 1749.55 434.364C1751.85 436.367 1755.27 440.541 1757.14 443.635C1759.11 446.897 1761.2 452.445 1762.12 456.86C1762.99 461.045 1763.48 464.936 1763.18 465.512C1762.85 466.194 1742.31 466.561 1646.75 466.54L1445.19 348.573L1401.96 309.769L1411.6 306.371C1416.89 304.504 1425.95 300.686 1431.72 297.875C1437.49 295.075 1450.94 287.587 1461.61 281.242C1472.28 274.897 1484.08 268.153 1487.83 266.265C1491.59 264.377 1497.01 261.902 1499.9 260.77Z" fill="#2F2F2F"/>
<path d="M395.883 881.878C394.131 882.749 393.785 882.581 393.785 880.829C393.785 878.9 394.487 878.732 402.701 878.732C408.292 878.732 411.417 879.12 411.092 879.781C410.809 880.357 407.736 880.829 404.274 880.829C400.813 880.829 397.036 881.301 395.883 881.878Z" fill="#2F2F2F"/>
<path d="M866.985 898.533C867.09 893.834 867.593 892.67 871.055 889.094C874.632 885.412 875.513 885.024 880.369 885.024C884.555 885.024 886.432 885.601 888.887 887.646C890.618 889.094 892.558 892.041 893.208 894.201C893.901 896.498 894.069 899.875 893.618 902.329C893.125 904.993 891.593 907.762 889.401 909.933C886.516 912.786 885.163 913.341 881.125 913.341C878.418 913.341 874.936 912.534 873.195 911.506C871.474 910.499 869.355 908.37 868.474 906.787C867.541 905.119 866.911 901.627 866.985 898.533Z" fill="#2F2F2F"/>
<path d="M1052.71 890.583C1054.04 888.737 1056.08 886.755 1057.24 886.189C1058.4 885.633 1061.59 885.129 1064.32 885.098C1068.16 885.045 1070.03 885.622 1072.45 887.646C1074.18 889.094 1076.12 892.041 1076.77 894.201C1077.47 896.498 1077.63 899.875 1077.18 902.329C1076.68 905.067 1075.13 907.804 1072.73 910.195C1069.23 913.667 1068.74 913.834 1063.43 913.341C1058.88 912.911 1057.19 912.177 1054.39 909.377C1051.43 906.419 1050.91 905.088 1050.61 899.938C1050.34 894.998 1050.71 893.341 1052.71 890.583Z" fill="#2F2F2F"/>
<path d="M1196.23 913.341L1196.39 899.036L1196.54 884.741L1202.94 885.245C1206.74 885.538 1210.57 886.556 1212.36 887.741C1214.03 888.842 1216.03 891.044 1216.82 892.628C1217.61 894.212 1218.26 897.043 1218.26 898.921C1218.26 900.798 1217.43 903.986 1216.42 906C1215.37 908.098 1213.01 910.457 1210.91 911.506C1208.82 912.555 1204.87 913.341 1196.23 913.341Z" fill="#2F2F2F"/>
<path d="M1389.23 898.648V891.831V885.014H1395C1398.17 885.014 1402.07 885.528 1403.66 886.147C1405.24 886.765 1406.89 887.825 1407.31 888.506C1407.74 889.177 1408.07 890.919 1408.07 892.355C1408.06 893.803 1407.24 895.827 1406.25 896.855C1404.83 898.312 1402.79 898.711 1389.23 898.648Z" fill="#2F2F2F"/>
<path d="M1348.42 897.861C1349.64 895.124 1351.16 891.747 1351.82 890.352C1352.48 888.957 1353.3 888.255 1353.64 888.779C1353.98 889.303 1355.52 892.691 1359.86 902.843H1346.23L1348.42 897.861Z" fill="#2F2F2F"/>
<path d="M1684.18 903.368L1687.35 895.785C1689.11 891.621 1690.83 888.38 1691.19 888.58C1691.56 888.789 1693.27 892.093 1695 895.921C1696.73 899.739 1697.91 903.105 1697.62 903.388C1697.33 903.682 1694.19 903.787 1684.18 903.368Z" fill="#2F2F2F"/>
<path d="M1519.24 298.232C1517.09 293.618 1514.99 288.667 1514.58 287.22C1514.08 285.479 1514.17 284.955 1514.87 285.647C1515.43 286.224 1519.1 290.702 1523.03 295.61C1526.95 300.519 1533.75 308.531 1538.13 313.44C1542.52 318.348 1555.29 331.363 1566.53 342.365C1577.77 353.377 1593.57 368.48 1601.65 375.926C1609.72 383.383 1622.71 395.161 1630.49 402.093C1638.27 409.036 1647.65 417.29 1658 426.183L1683.84 426.257C1703.33 426.309 1711.36 426.729 1716.5 427.956C1720.26 428.847 1725.21 430.389 1727.52 431.375C1729.83 432.361 1733.13 433.777 1734.86 434.511C1736.59 435.245 1740.06 437.689 1742.57 439.933C1745.09 442.177 1748.04 445.785 1749.13 447.946C1750.23 450.106 1751.12 452.466 1751.12 453.19C1751.13 453.913 1750.02 452.843 1748.65 450.83C1747.3 448.816 1744.34 445.942 1742.1 444.453C1739.84 442.964 1735.65 440.898 1732.76 439.881L1731.83 439.549C1729.25 438.628 1726.72 437.728 1725.95 437.447C1725.07 437.133 1723.43 436.724 1722.27 436.524C1721.12 436.336 1717.11 435.602 1713.36 434.899C1709.14 434.102 1696.08 433.598 1651.84 433.525L1647.73 430.798C1645.46 429.298 1636.99 423.132 1628.92 417.091C1620.84 411.06 1607.87 400.719 1600.09 394.122C1592.31 387.536 1580.03 376.241 1572.78 369.025C1565.54 361.82 1557.6 353.555 1555.15 350.671C1552.68 347.787 1549.8 344.483 1548.74 343.33C1547.68 342.176 1543.83 337.226 1540.18 332.318C1536.53 327.409 1531.2 319.627 1528.33 315.013C1525.47 310.398 1521.38 302.847 1519.24 298.232Z" fill="#E2E2E2"/>
<path d="M915.069 471.103C915.383 470.756 947.733 470.787 986.963 471.165C1026.19 471.553 1074.11 472.319 1093.43 472.864C1112.76 473.42 1141.09 474.364 1156.37 474.973C1171.66 475.581 1197.62 476.776 1214.06 477.626C1230.51 478.486 1258.83 480.122 1277 481.275C1295.17 482.429 1322.31 484.317 1337.31 485.471C1352.31 486.624 1378.04 488.753 1394.48 490.211C1410.93 491.658 1438.53 494.26 1455.84 495.99C1473.15 497.731 1499.82 500.562 1515.11 502.282C1530.4 504.013 1559.9 507.568 1580.67 510.19C1601.44 512.802 1629.76 516.546 1643.6 518.507C1657.45 520.479 1679.88 523.72 1693.43 525.733C1706.99 527.737 1735.54 532.246 1756.89 535.738C1778.23 539.241 1803.72 543.531 1813.53 545.272C1829.4 548.094 1832.52 548.995 1841.85 553.536C1849.28 557.154 1854.45 560.584 1859.58 565.304C1863.56 568.964 1868.83 574.795 1871.3 578.256C1873.76 581.717 1877.21 587.612 1878.98 591.366C1880.73 595.121 1882.89 601.015 1883.78 604.476C1885.1 609.615 1885.4 618.016 1885.37 650.098C1885.35 681.718 1885.04 690.759 1883.75 696.244C1882.86 699.999 1880.55 706.365 1878.62 710.402C1876.68 714.44 1872.55 721.047 1869.42 725.085C1866.29 729.123 1860.23 735.185 1855.94 738.562C1851.65 741.929 1844.84 746.25 1840.8 748.169C1836.77 750.078 1829.93 752.395 1825.59 753.318C1821.27 754.241 1803.8 757.356 1786.78 760.24C1769.77 763.124 1740.74 767.813 1722.27 770.634C1703.81 773.465 1686.82 776.035 1684.51 776.35C1682.2 776.654 1668.75 778.604 1654.62 780.681C1640.49 782.747 1625.61 784.876 1621.58 785.411C1617.54 785.936 1605.02 787.561 1593.78 789.029C1582.53 790.498 1571.44 791.935 1569.13 792.218C1566.82 792.511 1557.15 793.686 1547.62 794.818C1538.11 795.962 1517.57 798.301 1502 800.021C1486.42 801.74 1464.23 804.09 1452.69 805.254C1441.16 806.418 1415.67 808.788 1396.05 810.529C1376.44 812.281 1344.58 814.872 1325.25 816.298C1305.93 817.724 1274.06 819.843 1254.44 821.007C1234.83 822.161 1203.44 823.818 1184.69 824.667C1165.95 825.527 1134.55 826.828 1114.93 827.572C1091.56 828.453 1038.07 828.904 959.691 828.894C882.572 828.883 828.194 828.411 806.544 827.562C788.083 826.838 767.083 826.02 759.866 825.747C752.66 825.474 742.507 825.013 737.315 824.74C732.122 824.457 722.209 823.975 715.286 823.671C708.363 823.367 699.164 822.905 694.832 822.632C690.511 822.359 681.541 821.877 674.902 821.562C668.272 821.248 660.478 820.766 657.594 820.482C654.709 820.199 644.325 819.517 634.518 818.951C624.71 818.395 610.549 817.451 603.049 816.854C595.549 816.256 577.14 814.818 562.141 813.654C547.141 812.48 517.172 809.89 495.532 807.876C473.903 805.862 452.42 803.775 447.805 803.24C443.19 802.695 436.582 801.981 433.12 801.656C429.659 801.331 425.411 800.849 423.68 800.587C421.949 800.325 404.012 798.217 383.819 795.899C363.627 793.582 340.026 790.76 331.372 789.638C322.718 788.515 303.365 785.904 288.365 783.849C273.366 781.783 251.422 778.667 239.59 776.916C227.768 775.165 201.565 771.137 181.373 767.959C161.181 764.781 132.744 760.093 118.174 757.534C103.604 754.975 88.7403 751.777 85.132 750.424C81.5237 749.081 75.7448 746.176 72.2834 743.984C68.8219 741.792 63.8701 738.122 61.2687 735.825C58.6779 733.528 54.231 728.767 51.4093 725.222C48.5772 721.687 44.4437 715.017 42.2199 710.402C39.9962 705.788 37.4475 698.709 36.5558 694.671C35.2027 688.546 34.9926 680.628 35.3283 646.951C35.6639 612.174 35.9682 605.849 37.5207 601.329C38.5171 598.445 40.7409 593.254 42.4611 589.793C44.1814 586.332 47.9373 580.312 50.8009 576.421C53.6751 572.53 59.2131 566.73 63.1047 563.552C66.9962 560.364 73.2584 556.169 77.0031 554.239C80.7582 552.31 86.1809 549.981 89.0656 549.068C91.9502 548.156 109.416 544.832 127.877 541.675C146.338 538.518 172.069 534.271 185.044 532.226C198.03 530.191 214.782 527.6 222.282 526.478C229.782 525.345 242.768 523.426 251.128 522.22C259.499 521.003 278.611 518.34 293.611 516.284C308.61 514.239 334.099 510.935 350.253 508.942C366.407 506.96 390.249 504.159 403.225 502.723C416.211 501.286 428.715 499.881 431.023 499.598C433.332 499.314 451.981 497.437 472.455 495.413C492.941 493.399 514.655 491.26 520.707 490.673C526.77 490.075 546.123 488.439 563.714 487.033C581.315 485.617 609.867 483.52 627.175 482.355C644.483 481.191 671.86 479.524 688.014 478.653C704.167 477.783 722.103 476.829 727.873 476.535C733.642 476.241 751.821 475.507 768.258 474.909C784.705 474.311 811.139 473.42 826.999 472.927C842.87 472.444 869.041 471.973 885.174 471.889C901.304 471.794 914.76 471.438 915.069 471.103ZM1405.5 529.635C1403.77 529.708 1399.52 530.128 1396.06 530.579C1392.6 531.03 1386.94 532.404 1383.47 533.631C1380.01 534.847 1374.86 537.375 1372.03 539.231C1369.2 541.088 1364.35 545.314 1361.28 548.639C1357.57 552.634 1353.92 558.287 1350.47 565.419C1347.24 572.047 1344.23 580.386 1342.6 587.182C1341.14 593.233 1339.36 602.2 1338.63 607.108C1337.83 612.552 1337.32 627.025 1337.33 644.34C1337.34 666.93 1337.73 674.985 1339.27 684.193C1340.33 690.538 1342.34 699.621 1343.72 704.383C1345.1 709.134 1347.48 715.982 1349 719.59C1350.51 723.187 1353.53 728.977 1355.7 732.438C1357.87 735.898 1362.41 741.269 1365.79 744.373C1369.17 747.467 1374.64 751.368 1377.97 753.025C1381.28 754.672 1386.71 756.727 1390.03 757.566C1393.35 758.416 1397.83 759.36 1400 759.664L1403.93 760.23L1402.36 796.172C1407.23 795.238 1412.43 794.672 1417.04 794.326C1421.66 793.98 1426.72 793.477 1428.32 793.215L1431.2 792.742V758.133C1438.1 756.381 1443.89 754.053 1448.51 751.819C1453.13 749.575 1459.61 745.599 1462.93 742.978C1466.25 740.345 1471.29 735.249 1474.16 731.651C1477.01 728.044 1481.46 720.849 1484.05 715.657C1486.64 710.466 1489.92 702.202 1491.35 697.304C1492.78 692.396 1494.66 683.428 1495.54 677.377C1496.44 671.315 1497.42 661.876 1497.76 656.401C1498.09 650.916 1497.88 639.473 1497.3 630.968C1496.71 622.452 1495.33 611.126 1494.22 605.798C1493.12 600.46 1491.17 593.023 1489.88 589.279C1488.6 585.525 1486.14 579.63 1484.4 576.169C1482.67 572.708 1479.51 567.276 1477.37 564.108C1475.22 560.931 1469.97 555.11 1465.7 551.156C1460.28 546.133 1455.11 542.588 1448.51 539.368C1443.32 536.83 1436.24 534.03 1432.78 533.159C1429.31 532.278 1422.46 531.103 1417.57 530.537C1412.66 529.971 1407.23 529.572 1405.5 529.635ZM963.361 511.261C952.106 511.041 920.721 511.208 893.607 511.638C866.492 512.057 844.191 512.477 844.044 512.561C843.897 512.648 843.782 524.75 843.782 539.451V566.195H908.817V772.805H937.138V565.146L1001.12 565.671V511.659C987.708 511.659 974.617 511.481 963.361 511.261ZM1059.69 512.235C1048.91 511.837 1040.06 511.774 1040.02 512.1C1039.97 512.452 1027.66 560.269 1012.66 618.372C997.662 676.485 982.778 734.179 979.578 746.586C976.379 758.992 973.548 769.962 973.285 770.97C972.845 772.658 974.103 772.805 989.323 772.805H1005.84L1007.41 766.654C1015.84 733.632 1018.7 722.399 1019.14 720.628L1020.01 717.22L1100.08 717.744L1113.89 770.928C1138.54 770.351 1145.93 769.942 1146.21 769.659C1146.49 769.376 1144.4 760.398 1141.56 749.732C1138.72 739.066 1125.76 689.511 1112.75 639.61C1099.75 589.71 1087 540.868 1084.44 531.062C1081.87 521.266 1079.66 513.196 1079.52 513.106C1079.39 513.033 1070.46 512.644 1059.69 512.235ZM725.839 518.749C725.356 517.228 724.108 516.935 718.706 517.061C715.098 517.144 706.244 517.616 699.038 518.099C691.827 518.581 685.851 519.105 685.759 519.252C685.665 519.409 679.139 543.364 671.262 572.499C663.395 601.624 649.203 653.307 639.731 687.34C630.259 721.373 621.615 752.281 620.525 756.035L618.553 762.853C634.182 764.059 641.671 764.415 645.279 764.415L651.836 764.426C653.567 757.514 654.93 752.438 655.969 748.693C657.007 744.939 658.842 738.332 660.038 734.011C661.245 729.679 662.954 723.428 663.846 720.114L665.472 714.084C726.823 715.111 744.885 715.646 745.192 715.919C745.475 716.202 748.79 728.284 752.545 742.789L759.373 769.145C784.55 769.952 791.959 770.193 792.09 770.193C792.216 770.193 790.727 764.058 788.786 756.56C786.835 749.061 781.643 728.998 777.227 711.986C772.811 694.965 768.048 676.8 766.643 671.608C765.237 666.417 755.608 630.308 745.255 591.377C734.903 552.441 726.166 519.763 725.839 518.749ZM1161.71 642.673L1161.61 769.659C1167.71 769.67 1173.85 769.313 1179.19 768.872L1188.9 768.086C1188.84 620.965 1189.05 578.489 1189.33 578.781C1189.6 579.064 1199.31 598.656 1210.9 622.306C1222.49 645.956 1243.41 687.654 1257.37 714.954L1282.77 764.614C1309.6 763.534 1318.21 763.02 1319.22 762.769C1320.95 762.338 1321.05 755.8 1321.05 643.806V525.293C1312.51 524.527 1306.38 524.055 1301.91 523.751L1293.78 523.195C1293.66 675.373 1293.31 703.282 1292.59 701.488C1292.02 700.041 1291.17 698.625 1290.73 698.342C1290.29 698.059 1280.21 678.698 1268.32 655.342C1256.45 631.985 1236.27 591.387 1223.48 565.146C1210.7 538.936 1200.17 517.413 1200.06 517.302C1199.97 517.228 1191.33 516.83 1180.85 516.421L1161.79 515.676L1161.71 642.673ZM659.441 520.206C658.423 520.29 651.469 520.804 643.969 521.339C636.469 521.874 630.028 522.63 629.661 523.018C629.294 523.406 624.888 538.591 619.874 556.767C614.85 574.931 602.997 616.935 593.525 650.108C584.053 683.27 575.924 711.356 575.462 712.511C574.843 714.042 572.137 706.018 565.382 682.62C560.305 665.021 548.178 624.077 538.434 591.639C528.689 559.19 520.718 532.288 520.718 531.858C520.728 531.418 517.067 531.439 512.588 531.88C508.12 532.331 500.798 533.043 496.319 533.452C491.84 533.872 488.19 534.564 488.19 535.005C488.19 535.436 491.704 546.763 495.984 560.176C500.263 573.579 509.651 603.669 516.858 627.035C524.053 650.391 534.993 686.501 541.151 707.267C547.318 728.032 553.266 748.201 554.367 752.103C555.731 756.874 556.979 759.328 558.217 759.633C559.224 759.885 567.479 760.357 576.573 760.682L593.095 761.279C597.039 747.865 602.913 727.686 608.693 707.791C614.462 687.885 623.493 656.506 628.748 638.048C634.014 619.589 643.476 585.955 649.79 563.322C656.105 540.679 661.277 521.685 661.277 521.108C661.276 520.532 660.447 520.122 659.441 520.206ZM415.298 540.469C407.819 540.144 401.788 540.574 394.319 541.958C388.55 543.038 380.757 544.958 377.012 546.237C373.257 547.506 367.593 549.919 364.425 551.597C361.247 553.264 355.467 557.239 351.575 560.417C347.673 563.595 342.303 569.153 339.617 572.761C336.932 576.358 332.851 583.322 330.554 588.23C328.246 593.128 325.288 601.393 323.987 606.584C322.676 611.775 321.03 620.973 320.317 627.035C319.498 634.062 319.268 643.91 319.677 654.304C320.034 663.239 321.04 674.094 321.921 678.426C322.792 682.747 324.523 689.354 325.761 693.108C326.988 696.852 329.411 702.757 331.12 706.218C332.841 709.679 336.25 715.343 338.684 718.804C341.128 722.265 345.911 727.614 349.31 730.687C352.719 733.77 359.159 738.133 363.638 740.388C368.106 742.653 375.89 745.726 380.945 747.226C388.194 749.376 393.208 750.067 404.809 750.508C417.648 750.99 420.512 750.781 427.623 748.83C432.091 747.593 438.112 745.411 440.997 743.975C443.882 742.527 449.19 738.562 452.798 735.164C456.396 731.766 461.264 725.757 463.603 721.793C465.942 717.839 468.858 712.248 470.074 709.364C471.302 706.48 473.284 700.345 474.49 695.73C475.686 691.116 477.48 682.149 478.466 675.804C479.693 667.822 480.218 658.268 480.165 644.864C480.123 634.188 479.568 620.974 478.928 615.499C478.288 610.014 476.567 600.816 475.099 595.048C473.63 589.28 470.316 580.186 467.725 574.858C464.41 568.01 461.064 563.07 456.355 558.078C452.453 553.936 447.113 549.614 443.505 547.685C440.106 545.87 434.725 543.605 431.557 542.661C428.378 541.707 421.067 540.731 415.298 540.469ZM1514.45 609.856C1514.67 672.835 1514.77 676.244 1516.9 685.767C1518.13 691.241 1520.15 698.793 1521.41 702.548C1522.66 706.292 1525.18 712.175 1527 715.615C1528.83 719.055 1532.92 724.656 1536.1 728.064C1539.26 731.473 1543.98 735.489 1546.59 736.979C1549.18 738.478 1553.54 740.544 1556.29 741.572C1559.03 742.6 1565.63 743.953 1570.97 744.582C1578.13 745.421 1583.57 745.401 1591.69 744.488C1597.74 743.817 1606.24 742.359 1610.57 741.247C1614.89 740.135 1622.21 737.43 1626.83 735.217C1631.45 733.014 1638.17 728.767 1641.78 725.788C1645.38 722.81 1650.53 717.42 1653.2 713.822C1655.89 710.215 1659.62 703.964 1661.5 699.926C1663.39 695.888 1665.72 689.511 1666.7 685.767C1667.68 682.012 1669.12 674.702 1669.92 669.511C1670.99 662.547 1671.38 647.622 1671.39 612.614C1671.4 586.519 1671.05 565.151 1670.62 565.126C1670.18 565.105 1663.93 564.203 1656.73 563.123C1649.51 562.043 1643.48 561.224 1643.32 561.318C1643.16 561.413 1642.84 583.899 1642.6 611.304C1642.26 649.626 1641.81 662.694 1640.64 667.938C1639.81 671.682 1637.75 677.818 1636.08 681.572C1634.4 685.316 1630.92 690.675 1628.35 693.465C1625.78 696.265 1622.27 699.422 1620.54 700.492C1618.81 701.562 1614.79 703.355 1611.62 704.467C1608.44 705.578 1601.36 707.047 1595.89 707.729C1588.47 708.651 1584.17 708.672 1579.1 707.812C1575.35 707.173 1569.45 705.306 1565.99 703.659C1562.32 701.918 1558.3 698.992 1556.36 696.632C1554.54 694.398 1551.64 689.511 1549.94 685.767C1548.23 682.012 1545.99 675.646 1544.95 671.608C1543.25 664.991 1543.05 658.488 1542.97 605.934L1542.86 547.611C1527.45 545.682 1521.01 544.852 1518.6 544.527L1514.23 543.919L1514.45 609.856ZM304.624 556.757C299.348 556.946 293.558 557.658 288.365 558.455C283.173 559.263 278.337 560.144 277.613 560.438C276.586 560.85 276.303 574.948 276.303 625.976V691C253.279 658.897 241.834 643.438 236.033 635.939C230.233 628.441 219.743 615.467 212.736 607.098C205.73 598.739 196.278 588.01 191.736 583.27L183.471 574.648L145.709 581.413L145.247 719.842C157.803 721.855 164.17 722.8 167.495 723.24L173.537 724.037L173.59 612.866C179.317 619.369 187.143 628.577 194.674 637.513C202.205 646.459 215.087 662.736 223.289 673.695C231.502 684.655 243.733 701.645 250.467 711.451C257.201 721.256 263.767 730.569 265.058 732.144C267.303 734.881 268.069 735.06 284.17 736.602C293.4 737.482 301.78 738.206 302.788 738.206C304.53 738.206 304.624 733.182 304.624 647.476V556.757ZM1690.28 568.293C1688.2 568.293 1688.18 568.996 1688.18 650.098V731.902C1694.29 731.095 1702.19 730.141 1709.69 729.26C1717.19 728.379 1724.98 727.446 1726.99 727.173C1729.02 726.911 1740.11 725.526 1751.64 724.1C1763.18 722.673 1782.06 720.293 1793.6 718.814C1805.14 717.336 1816.12 715.899 1817.99 715.626L1821.4 715.122V691C1815.31 691 1807.64 691.462 1800.42 692.039C1793.21 692.605 1773.39 694.031 1756.36 695.185C1739.35 696.349 1723.42 697.293 1720.96 697.293H1716.51V666.354C1744.55 665.147 1766.74 664.791 1783.9 664.791L1815.11 664.781V640.659C1806.58 639.862 1793.24 639.149 1779.97 638.551C1766.7 637.963 1748.29 637.03 1739.06 636.484C1729.83 635.929 1720.98 635.468 1719.39 635.457L1716.51 635.415V602.902C1722.61 603.71 1737.83 605.388 1754.27 607.14C1770.71 608.902 1791.24 611.272 1799.9 612.404C1808.55 613.537 1816.93 614.461 1818.51 614.45L1821.4 614.439C1821.4 595.75 1821.28 590.328 1821.14 590.328C1821 590.338 1812.85 588.901 1803.04 587.129C1793.24 585.356 1764.33 580.396 1738.8 576.106C1713.28 571.807 1691.44 568.294 1690.28 568.293ZM128.402 585.073C123.933 585.293 117.556 586.353 111.346 587.58L100.059 589.793L100.08 714.073C103.741 714.86 108.818 715.584 113.716 716.182C118.625 716.79 123.933 717.513 125.517 717.775L128.402 718.269V585.073ZM878.398 13.7822C890.219 13.7822 898.956 13.9284 897.803 14.1172C896.649 14.2955 885.32 14.9562 872.628 15.5645C859.936 16.1727 843.174 17.3793 835.391 18.2393C827.608 19.0993 814.39 20.997 806.02 22.4443C797.649 23.9021 785.848 26.3044 779.796 27.7832C773.744 29.2515 762.888 32.3561 755.671 34.6738C748.465 36.9916 737.367 40.9979 731.021 43.5674C724.675 46.1474 713.356 51.4117 705.877 55.2607C698.398 59.1098 686.356 66.2101 679.129 71.0449C671.902 75.8798 661.517 83.4308 656.063 87.8252C650.608 92.2195 640.518 101.25 633.637 107.878C626.756 114.506 615.825 126.074 609.343 133.573C602.86 141.072 592.476 153.815 586.266 161.891C580.056 169.967 561.647 195.21 545.367 218C529.088 240.79 511.371 264.86 505.99 271.488C500.62 278.117 487.697 292.086 477.26 302.521C466.833 312.957 452.63 326.182 445.707 331.908C438.784 337.645 428.641 345.458 423.155 349.286C417.669 353.114 408.114 359.355 401.914 363.162C395.715 366.959 384.145 373.335 376.215 377.31C368.285 381.295 357.071 386.424 351.302 388.71C345.533 390.986 336.334 394.332 330.848 396.125C325.362 397.929 315.922 400.562 309.869 401.978C303.817 403.393 293.421 405.26 286.792 406.12C280.163 406.98 270.009 407.913 264.239 408.196C258.47 408.469 251.149 408.333 242.212 407.074L249.555 406.917C253.593 406.833 261.618 406.057 267.387 405.187C273.156 404.316 282.837 402.428 288.89 400.98C294.942 399.533 304.383 396.88 309.869 395.076C315.355 393.283 324.554 389.948 330.323 387.672C336.093 385.407 346.478 380.781 353.401 377.404C360.324 374.027 372.134 367.577 379.645 363.067C387.166 358.558 398.683 351.09 405.249 346.476C411.816 341.861 423.124 333.166 430.393 327.146C437.662 321.137 450.721 309.108 459.417 300.403C468.113 291.709 479.923 278.935 485.661 272.013C491.399 265.091 502.277 251.173 509.84 241.073C517.392 230.984 529.843 213.753 537.5 202.793C545.168 191.833 556.161 176.501 561.951 168.708C567.731 160.916 577.192 148.655 582.983 141.439C588.773 134.234 601.791 120.013 611.913 109.86C622.035 99.6981 634.8 87.8264 640.286 83.4736C645.772 79.1212 655.675 71.9369 662.315 67.5215C668.954 63.1062 682.402 55.5439 692.209 50.709C702.017 45.8741 716.178 39.7288 723.678 37.0439C731.178 34.3591 744.394 30.3629 753.048 28.1709C761.702 25.9789 775.391 22.99 783.468 21.5322C791.545 20.064 804.761 18.1026 812.838 17.1797C820.915 16.2463 834.132 15.1031 842.209 14.6416C850.286 14.1801 866.576 13.7927 878.398 13.7822ZM57.8595 316.628C59.7371 316.607 63.0416 317.288 69.1359 319.711L63.2931 325.228C59.7058 328.605 56.7267 332.569 55.5939 335.464C54.2619 338.872 53.842 342.334 54.4504 355.601L49.9611 350.514C47.4961 347.713 44.5483 343.539 43.4259 341.231C42.2932 338.924 41.3603 335.505 41.3498 333.628C41.3498 331.751 41.8423 328.92 42.4611 327.336C43.0695 325.752 44.3911 323.298 45.3771 321.882C46.3736 320.466 48.818 318.715 50.8215 317.991C52.8143 317.268 55.9819 316.649 57.8595 316.628ZM1401.58 177.098C1401.76 177.101 1400.09 179.344 1397.85 182.079C1395.61 184.816 1383.5 199.804 1370.93 215.378C1358.36 230.952 1345.66 246.223 1342.69 249.307C1339.73 252.39 1331.17 260.078 1323.67 266.381C1316.18 272.694 1308.21 279.364 1305.97 281.221C1303.73 283.077 1300.85 285.542 1299.55 286.695C1298.26 287.849 1296.31 289.516 1295.23 290.397C1294.35 291.106 1290 294.658 1284.83 298.88L1281.19 301.851C1274.55 307.273 1262.52 317.372 1254.44 324.294C1246.37 331.216 1238.57 337.833 1237.14 338.987C1235.69 340.151 1239 336.638 1244.48 331.185C1249.96 325.731 1284.42 291.939 1321.05 256.092C1357.68 220.245 1390.71 187.805 1394.45 184.009C1398.18 180.202 1401.39 177.098 1401.58 177.098ZM930.32 180.391C928.013 180.926 923.061 182.363 919.306 183.59C915.551 184.817 909.887 187.135 906.719 188.739C903.551 190.344 898.285 193.458 895.033 195.65C891.771 197.853 885.216 202.951 880.464 206.988C875.712 211.026 863.754 223.527 853.884 234.78C844.024 246.034 831.226 260.12 825.446 266.098C819.667 272.076 810.918 280.235 806.02 284.23C800.418 288.782 792.803 293.607 785.566 297.173C779.22 300.288 769.779 304.052 764.587 305.521C759.395 306.978 750.184 308.887 744.132 309.747C736.663 310.796 725.177 311.268 708.468 311.194C694.916 311.142 680.756 310.733 677 310.282C670.36 309.485 670.465 309.464 680.671 309.433C686.44 309.412 693.28 309.108 695.881 308.751C698.482 308.394 705.08 307.398 710.566 306.549C716.052 305.689 725.723 303.612 732.069 301.924C738.415 300.246 747.625 297.246 752.524 295.274C757.422 293.303 764.744 290.02 768.782 287.985C772.821 285.951 780.604 281.357 786.09 277.76C791.576 274.173 800.303 267.828 805.495 263.675C810.688 259.522 826.264 245.352 840.111 232.2C853.956 219.049 869.303 205.279 874.201 201.587C879.1 197.906 887.135 192.819 892.033 190.291C896.932 187.753 904.484 184.628 908.817 183.327C913.138 182.027 919.044 180.622 921.929 180.213C924.813 179.793 928.831 179.447 934.516 179.416L930.32 180.391ZM1478.39 229.568C1483.87 229.054 1497.1 228.802 1507.76 229.022C1519.49 229.264 1530.9 230.103 1536.61 231.142C1541.8 232.086 1549.59 234.016 1553.92 235.421C1558.24 236.826 1563.44 238.934 1569.13 242.217L1565.46 241.65C1563.44 241.336 1556.59 240.318 1550.25 239.385C1543.21 238.357 1531.54 237.675 1520.35 237.644C1506.09 237.602 1499.07 238.095 1488.88 239.867C1481.67 241.115 1469.87 243.748 1462.66 245.709C1455.44 247.681 1442.24 251.907 1433.29 255.096C1424.34 258.284 1412.31 262.762 1406.54 265.027C1400.77 267.292 1395.97 269.085 1395.85 269.013C1395.75 268.929 1396.11 264.146 1396.66 258.378C1397.26 252.18 1398.19 247.577 1398.96 247.125C1399.67 246.695 1404.5 244.932 1409.69 243.191C1414.88 241.45 1425.27 238.651 1432.76 236.973C1440.26 235.295 1451.35 233.144 1457.42 232.211C1463.48 231.278 1472.92 230.093 1478.39 229.568ZM1017.27 214.592C1017.04 214.162 1021.69 216.103 1027.61 218.913C1033.53 221.734 1044.5 226.254 1052 228.98C1059.5 231.707 1071.06 235.284 1077.7 236.931C1084.34 238.588 1095.18 240.717 1101.82 241.682C1111.16 243.035 1118.27 243.297 1133.29 242.846C1143.96 242.531 1154.83 241.755 1157.42 241.137C1160 240.514 1163.33 239.731 1167.38 238.787L1166.59 248.059C1166.16 253.156 1165.68 257.434 1165.54 257.57C1165.4 257.707 1162.22 258.378 1158.47 259.06C1154.71 259.752 1142.68 260.329 1131.72 260.36C1116.55 260.392 1109.53 259.951 1102.35 258.504C1097.15 257.466 1087.96 254.991 1081.89 252.998C1075.83 251.005 1065.93 246.757 1059.86 243.559C1053.8 240.36 1041.83 232.715 1033.26 226.559C1024.68 220.413 1017.49 215.022 1017.27 214.592ZM1695.79 119.394C1696.22 119.405 1704.49 123.736 1714.14 129.011C1723.81 134.286 1736.67 141.555 1742.73 145.152C1748.79 148.75 1756.77 153.982 1760.47 156.793C1764.17 159.593 1768.3 163.548 1769.65 165.562C1771.27 167.984 1772.11 170.753 1772.1 173.689C1772.1 176.144 1771.58 179.447 1769.83 183.915L1768.59 180.244C1767.9 178.23 1765.7 174.476 1763.7 171.906C1761.68 169.337 1755.55 163.527 1750.07 158.996C1744.6 154.465 1732.55 145.498 1723.32 139.079L1717.28 134.872C1710.03 129.819 1703.26 125.105 1700.77 123.379C1697.59 121.166 1695.36 119.373 1695.79 119.394ZM918.257 27.2588C923.743 27.1749 934.359 27.6254 941.859 28.2441C949.358 28.8734 967.537 31.4541 982.243 33.9922C996.949 36.5197 1005.93 38.3752 1002.17 38.1025C998.418 37.8299 986.858 37.1173 976.474 36.5195C963.446 35.7749 952.233 35.7749 940.285 36.5195C930.761 37.1173 918.499 38.3341 913.013 39.2256C907.527 40.117 899.513 41.7425 895.181 42.8438C890.859 43.945 883.065 46.3363 877.873 48.1611C872.681 49.9965 864.299 53.6461 859.243 56.2891C854.187 58.9215 846.394 63.4101 841.936 66.2627C837.467 69.1049 830.754 73.8872 826.999 76.8867C823.244 79.8862 816.226 86.3258 811.38 91.1816C806.544 96.0375 799.17 104.26 795.006 109.451C790.842 114.643 783.887 124.082 779.566 130.427C775.244 136.772 768.646 147.155 764.891 153.5C761.146 159.845 756.594 167.984 754.779 171.592C752.966 175.198 751.235 178.029 750.93 177.885C750.636 177.738 754.338 168.655 759.174 157.695C764.01 146.736 770.692 132.336 774.017 125.708C777.352 119.08 782.923 108.927 786.395 103.159C789.877 97.3909 795.321 89.1361 798.488 84.8047C801.667 80.4837 807.845 73.2157 812.23 68.6641C816.604 64.1124 823.957 57.5687 828.572 54.1182C833.188 50.6677 841.212 45.728 846.404 43.127C851.597 40.526 859.862 37.0861 864.761 35.4814C869.659 33.8768 877.694 31.7999 882.593 30.877C887.491 29.9435 895.285 28.7791 899.901 28.2861C904.516 27.8037 912.771 27.3322 918.257 27.2588ZM1376.12 44.0176C1381.89 43.9547 1390.63 44.5743 1395.53 45.3818C1400.43 46.1999 1408.22 48.0874 1412.84 49.5977C1417.45 51.0973 1422.41 53.0164 1423.85 53.8555C1426.26 55.2608 1425.93 55.3133 1419.65 54.6211C1415.9 54.2016 1401.74 53.8662 1388.18 53.8662C1367.54 53.8662 1362.09 54.2014 1354.62 55.9004C1347.5 57.526 1339.16 61.1972 1313.19 74.1074C1295.3 83.0005 1279.5 90.7301 1278.05 91.2764C1276.38 91.916 1275.8 91.9158 1276.47 91.2764C1277.05 90.7205 1284.13 85.2032 1292.21 79.0049C1300.28 72.8066 1310.2 65.5071 1314.23 62.7803C1318.27 60.064 1324.41 56.3933 1327.87 54.6523C1331.33 52.9009 1337.47 50.4573 1341.51 49.2197C1345.55 47.9822 1352.63 46.3256 1357.24 45.5391C1361.86 44.763 1370.35 44.07 1376.12 44.0176Z" fill="#E2E2E2"/>
<path d="M1045.77 617.061C1052.43 591.104 1058.11 569.038 1058.41 568.031C1058.69 567.024 1059.37 566.195 1059.92 566.195C1060.46 566.195 1061.35 567.968 1061.9 570.128C1062.45 572.289 1068.11 594.24 1074.49 618.897C1080.86 643.553 1086.09 664.204 1086.09 664.781C1086.09 665.452 1076.65 665.829 1059.86 665.829C1045.44 665.829 1033.64 665.473 1033.65 665.043C1033.65 664.613 1039.11 643.018 1045.77 617.061Z" fill="#E2E2E2"/>
<path d="M690.038 622.924C696.227 600.092 702.038 578.896 702.94 575.844C703.842 572.761 705.09 570.464 705.741 570.695C706.37 570.925 712.465 592.069 719.262 617.68C726.059 643.302 731.492 664.372 731.325 664.508C731.157 664.644 719.335 665.116 705.059 665.557C689.629 666.029 679.035 665.966 678.94 665.399C678.856 664.875 683.849 645.766 690.038 622.924Z" fill="#E2E2E2"/>
<path d="M1387.73 579.829C1390.68 577.721 1395.77 575.404 1399.7 574.386C1403.46 573.411 1409.14 572.593 1412.31 572.572C1415.49 572.54 1421.38 573.233 1425.42 574.103C1429.46 574.963 1435.12 576.746 1438.01 578.068C1440.89 579.378 1445.54 582.556 1448.33 585.126C1451.12 587.695 1454.74 591.911 1456.39 594.512C1458.02 597.113 1460.54 602.766 1461.98 607.098C1463.42 611.419 1465.17 619.683 1465.87 625.451C1466.7 632.143 1466.95 642.211 1466.56 653.244C1466.12 665.987 1465.38 672.762 1463.74 678.939C1462.51 683.554 1460.01 690.13 1458.15 693.549C1456.3 696.978 1452.67 701.886 1450.07 704.477C1447.48 707.057 1442.52 710.507 1439.06 712.133C1435.6 713.769 1430.17 715.625 1427 716.276C1423.83 716.926 1416.75 717.262 1411.26 717.02C1403.02 716.664 1400.14 716.055 1394.6 713.496C1390.39 711.556 1386.2 708.557 1383.33 705.421C1380.8 702.684 1377.33 697.492 1375.59 693.884C1373.86 690.276 1371.4 682.61 1370.14 676.842C1368.19 667.969 1367.84 662.966 1367.78 644.329C1367.74 626.689 1368.12 620.533 1369.66 613.39C1370.73 608.493 1372.47 602.116 1373.54 599.232C1374.61 596.348 1377.09 591.628 1379.05 588.744C1381.01 585.86 1384.92 581.843 1387.73 579.829Z" fill="#E2E2E2"/>
<path d="M384.659 583.238C388.582 582.147 392.83 580.962 394.099 580.616C395.368 580.27 401.368 580.102 407.421 580.249C417.061 580.469 419.274 580.889 425.127 583.574C429.375 585.524 433.508 588.471 436.403 591.628C438.931 594.366 442.141 599.085 443.557 602.116C444.973 605.147 446.935 610.454 447.9 613.915C449.179 618.456 449.809 625.902 450.165 640.659C450.532 656.212 450.27 663.113 449.064 669.5C448.183 674.115 446.515 680.491 445.33 683.659C444.155 686.826 441.637 691.776 439.728 694.639C437.83 697.513 434.064 701.519 431.368 703.554C428.683 705.589 424.193 708.095 421.403 709.113C418.624 710.14 412.33 711.263 407.421 711.609C401.001 712.07 396.155 711.755 390.113 710.486C385.498 709.522 379.361 707.518 376.477 706.05C373.592 704.582 369.397 701.897 367.141 700.072C364.897 698.258 361.372 694.167 359.306 691C357.25 687.833 354.554 681.928 353.316 677.89C352.078 673.853 350.463 666.071 349.739 660.586C348.911 654.366 348.669 646.479 349.089 639.61C349.467 633.558 350.474 625.294 351.344 621.256C352.204 617.218 354.281 611.083 355.96 607.622C357.638 604.161 361.047 599.043 363.543 596.253C366.04 593.464 370.215 589.835 372.806 588.209C375.407 586.573 380.736 584.339 384.659 583.238Z" fill="#E2E2E2"/>
<path d="M1810.26 920V877.091H1839.18V884.571H1819.33V894.795H1837.69V902.275H1819.33V912.52H1839.26V920H1810.26Z" fill="white"/>
<path d="M1793.73 877.091H1802.8V904.957C1802.8 908.085 1802.05 910.823 1800.56 913.17C1799.08 915.516 1797 917.346 1794.33 918.659C1791.67 919.958 1788.56 920.608 1785.01 920.608C1781.45 920.608 1778.33 919.958 1775.67 918.659C1773 917.346 1770.92 915.516 1769.44 913.17C1767.96 910.823 1767.22 908.085 1767.22 904.957V877.091H1776.29V904.181C1776.29 905.816 1776.65 907.268 1777.36 908.539C1778.09 909.81 1779.11 910.809 1780.42 911.535C1781.73 912.262 1783.26 912.625 1785.01 912.625C1786.77 912.625 1788.3 912.262 1789.6 911.535C1790.91 910.809 1791.92 909.81 1792.64 908.539C1793.36 907.268 1793.73 905.816 1793.73 904.181V877.091Z" fill="white"/>
<path d="M1737.27 905.082H1744.98L1748.85 910.069L1752.67 914.51L1759.85 923.52H1751.39L1746.44 917.444L1743.91 913.84L1737.27 905.082ZM1760.5 898.545C1760.5 903.224 1759.61 907.205 1757.84 910.488C1756.08 913.77 1753.68 916.277 1750.63 918.009C1747.6 919.727 1744.19 920.586 1740.41 920.586C1736.6 920.586 1733.17 919.72 1730.14 917.988C1727.11 916.256 1724.72 913.749 1722.96 910.467C1721.2 907.184 1720.32 903.21 1720.32 898.545C1720.32 893.866 1721.2 889.885 1722.96 886.603C1724.72 883.32 1727.11 880.82 1730.14 879.102C1733.17 877.37 1736.6 876.504 1740.41 876.504C1744.19 876.504 1747.6 877.37 1750.63 879.102C1753.68 880.82 1756.08 883.32 1757.84 886.603C1759.61 889.885 1760.5 893.866 1760.5 898.545ZM1751.3 898.545C1751.3 895.514 1750.85 892.958 1749.94 890.877C1749.05 888.796 1747.78 887.217 1746.15 886.142C1744.52 885.066 1742.6 884.528 1740.41 884.528C1738.22 884.528 1736.3 885.066 1734.67 886.142C1733.03 887.217 1731.76 888.796 1730.85 890.877C1729.96 892.958 1729.51 895.514 1729.51 898.545C1729.51 901.576 1729.96 904.132 1730.85 906.213C1731.76 908.295 1733.03 909.873 1734.67 910.949C1736.3 912.024 1738.22 912.562 1740.41 912.562C1742.6 912.562 1744.52 912.024 1746.15 910.949C1747.78 909.873 1749.05 908.295 1749.94 906.213C1750.85 904.132 1751.3 901.576 1751.3 898.545Z" fill="white"/>
<path d="M1713.57 877.091V920H1705.74L1687.07 892.993H1686.76V920H1677.68V877.091H1685.65L1704.17 904.077H1704.54V877.091H1713.57Z" fill="white"/>
<path d="M1640.95 920H1631.22L1646.04 877.091H1657.73L1672.52 920H1662.8L1652.05 886.896H1651.71L1640.95 920ZM1640.34 903.134H1663.3V910.215H1640.34V903.134Z" fill="white"/>
<path d="M1597.75 884.571V877.091H1632.99V884.571H1619.85V920H1610.89V884.571H1597.75Z" fill="white"/>
<path d="M1570.34 889.431C1570.18 887.741 1569.46 886.428 1568.19 885.492C1566.91 884.556 1565.19 884.088 1563.01 884.088C1561.53 884.088 1560.28 884.298 1559.26 884.717C1558.24 885.122 1557.46 885.688 1556.91 886.414C1556.38 887.14 1556.12 887.964 1556.12 888.886C1556.09 889.655 1556.25 890.325 1556.6 890.898C1556.96 891.47 1557.46 891.966 1558.09 892.385C1558.72 892.79 1559.44 893.147 1560.27 893.454C1561.09 893.747 1561.97 893.999 1562.91 894.208L1566.76 895.13C1568.63 895.549 1570.35 896.108 1571.92 896.806C1573.48 897.504 1574.83 898.364 1575.98 899.383C1577.13 900.403 1578.01 901.604 1578.64 902.987C1579.28 904.37 1579.61 905.955 1579.63 907.743C1579.61 910.369 1578.94 912.646 1577.61 914.573C1576.3 916.487 1574.4 917.974 1571.92 919.036C1569.44 920.083 1566.46 920.607 1562.97 920.607C1559.5 920.607 1556.49 920.076 1553.92 919.015C1551.36 917.953 1549.36 916.382 1547.93 914.301C1546.5 912.206 1545.75 909.615 1545.68 906.528H1554.46C1554.56 907.966 1554.97 909.168 1555.7 910.131C1556.44 911.081 1557.42 911.801 1558.65 912.289C1559.9 912.764 1561.3 913.002 1562.86 913.002C1564.4 913.002 1565.73 912.778 1566.87 912.331C1568.01 911.884 1568.9 911.263 1569.53 910.467C1570.16 909.67 1570.47 908.756 1570.47 907.722C1570.47 906.758 1570.18 905.948 1569.61 905.292C1569.05 904.635 1568.23 904.076 1567.14 903.615C1566.06 903.154 1564.74 902.735 1563.18 902.358L1558.51 901.185C1554.89 900.305 1552.03 898.929 1549.94 897.058C1547.84 895.186 1546.8 892.665 1546.82 889.494C1546.8 886.896 1547.49 884.626 1548.89 882.685C1550.3 880.743 1552.23 879.228 1554.69 878.138C1557.15 877.049 1559.94 876.504 1563.07 876.504C1566.26 876.504 1569.04 877.049 1571.41 878.138C1573.8 879.228 1575.66 880.743 1576.99 882.685C1578.31 884.626 1579 886.875 1579.04 889.431H1570.34Z" fill="white"/>
<path d="M1511.31 920H1501.59L1516.4 877.091H1528.09L1542.88 920H1533.16L1522.41 886.896H1522.08L1511.31 920ZM1510.7 903.134H1533.66V910.215H1510.7V903.134Z" fill="white"/>
<path d="M1468.11 884.571V877.091H1503.35V884.571H1490.21V920H1481.25V884.571H1468.11Z" fill="white"/>
<path d="M1433.62 920V877.091H1462.53V884.571H1442.69V894.795H1461.04V902.275H1442.69V912.52H1462.62V920H1433.62Z" fill="white"/>
<path d="M1394.9 920V877.091H1411.83C1415.07 877.091 1417.83 877.67 1420.13 878.83C1422.43 879.975 1424.18 881.602 1425.38 883.712C1426.6 885.807 1427.21 888.272 1427.21 891.108C1427.21 893.957 1426.59 896.408 1425.36 898.462C1424.13 900.501 1422.35 902.065 1420.02 903.155C1417.7 904.244 1414.89 904.789 1411.6 904.789H1400.26V897.498H1410.13C1411.86 897.498 1413.3 897.26 1414.45 896.785C1415.59 896.311 1416.44 895.598 1417 894.648C1417.58 893.699 1417.86 892.518 1417.86 891.108C1417.86 889.683 1417.58 888.482 1417 887.504C1416.44 886.526 1415.59 885.786 1414.43 885.283C1413.28 884.766 1411.84 884.508 1410.09 884.508H1403.97V920H1394.9ZM1418.07 900.473L1428.74 920H1418.72L1408.29 900.473H1418.07Z" fill="white"/>
<path d="M1356.18 920V877.091H1373.11C1376.35 877.091 1379.12 877.67 1381.41 878.83C1383.71 879.975 1385.46 881.602 1386.67 883.712C1387.88 885.807 1388.49 888.272 1388.49 891.108C1388.49 893.957 1387.87 896.408 1386.64 898.462C1385.42 900.501 1383.63 902.065 1381.3 903.155C1378.98 904.244 1376.18 904.789 1372.88 904.789H1361.54V897.498H1371.41C1373.14 897.498 1374.58 897.26 1375.73 896.785C1376.87 896.311 1377.73 895.598 1378.28 894.648C1378.86 893.699 1379.14 892.518 1379.14 891.108C1379.14 889.683 1378.86 888.482 1378.28 887.504C1377.73 886.526 1376.87 885.786 1375.71 885.283C1374.56 884.766 1373.12 884.508 1371.37 884.508H1365.25V920H1356.18ZM1379.35 900.473L1390.02 920H1380L1369.57 900.473H1379.35Z" fill="white"/>
<path d="M1319.44 920H1309.72L1324.53 877.091H1336.22L1351.02 920H1341.29L1330.55 886.896H1330.21L1319.44 920ZM1318.83 903.134H1341.8V910.215H1318.83V903.134Z" fill="white"/>
<path d="M1306.35 892.113H1297.17C1297 890.926 1296.66 889.871 1296.14 888.949C1295.63 888.013 1294.96 887.217 1294.15 886.561C1293.34 885.904 1292.41 885.401 1291.35 885.052C1290.3 884.703 1289.16 884.528 1287.93 884.528C1285.71 884.528 1283.78 885.08 1282.13 886.184C1280.48 887.273 1279.2 888.865 1278.29 890.961C1277.38 893.042 1276.93 895.57 1276.93 898.545C1276.93 901.604 1277.38 904.174 1278.29 906.255C1279.21 908.337 1280.5 909.908 1282.15 910.969C1283.8 912.031 1285.7 912.562 1287.87 912.562C1289.08 912.562 1290.21 912.401 1291.24 912.08C1292.29 911.759 1293.22 911.291 1294.03 910.676C1294.84 910.048 1295.51 909.286 1296.04 908.392C1296.58 907.498 1296.96 906.479 1297.17 905.333L1306.35 905.375C1306.11 907.345 1305.52 909.244 1304.57 911.074C1303.63 912.89 1302.37 914.517 1300.77 915.956C1299.2 917.381 1297.31 918.512 1295.12 919.35C1292.94 920.174 1290.47 920.586 1287.72 920.586C1283.89 920.586 1280.47 919.72 1277.45 917.988C1274.45 916.256 1272.08 913.749 1270.33 910.467C1268.6 907.184 1267.73 903.21 1267.73 898.545C1267.73 893.866 1268.61 889.885 1270.37 886.603C1272.13 883.32 1274.52 880.82 1277.54 879.102C1280.56 877.37 1283.95 876.504 1287.72 876.504C1290.21 876.504 1292.51 876.853 1294.63 877.551C1296.77 878.25 1298.66 879.27 1300.31 880.61C1301.96 881.937 1303.3 883.565 1304.34 885.492C1305.38 887.42 1306.05 889.627 1306.35 892.113Z" fill="white"/>
<path d="M1218.71 920V877.091H1247.62V884.571H1227.78V894.795H1246.13V902.275H1227.78V912.52H1247.7V920H1218.71Z" fill="white"/>
<path d="M1190.99 920H1175.78V877.091H1191.12C1195.43 877.091 1199.15 877.95 1202.26 879.668C1205.38 881.372 1207.77 883.823 1209.45 887.022C1211.14 890.221 1211.99 894.048 1211.99 898.503C1211.99 902.973 1211.14 906.814 1209.45 910.027C1207.77 913.239 1205.37 915.705 1202.22 917.423C1199.09 919.141 1195.35 920 1190.99 920ZM1184.85 912.227H1190.62C1193.3 912.227 1195.55 911.752 1197.38 910.802C1199.23 909.838 1200.61 908.351 1201.53 906.339C1202.47 904.314 1202.93 901.702 1202.93 898.503C1202.93 895.333 1202.47 892.742 1201.53 890.73C1200.61 888.719 1199.23 887.238 1197.4 886.289C1195.57 885.339 1193.32 884.864 1190.64 884.864H1184.85V912.227Z" fill="white"/>
<path d="M1146.74 889.431C1146.57 887.741 1145.86 886.428 1144.58 885.492C1143.31 884.556 1141.59 884.088 1139.41 884.088C1137.93 884.088 1136.68 884.298 1135.66 884.717C1134.64 885.122 1133.86 885.688 1133.31 886.414C1132.78 887.14 1132.52 887.964 1132.52 888.886C1132.49 889.655 1132.65 890.325 1133 890.898C1133.36 891.47 1133.86 891.966 1134.49 892.385C1135.11 892.79 1135.84 893.147 1136.66 893.454C1137.49 893.747 1138.37 893.999 1139.3 894.208L1143.16 895.13C1145.03 895.549 1146.75 896.108 1148.31 896.806C1149.88 897.504 1151.23 898.364 1152.38 899.383C1153.52 900.403 1154.41 901.604 1155.04 902.987C1155.68 904.37 1156.01 905.955 1156.02 907.743C1156.01 910.369 1155.34 912.646 1154.01 914.573C1152.7 916.487 1150.8 917.974 1148.31 919.036C1145.84 920.083 1142.86 920.607 1139.37 920.607C1135.9 920.607 1132.89 920.076 1130.32 919.015C1127.76 917.953 1125.76 916.382 1124.32 914.301C1122.9 912.206 1122.15 909.615 1122.08 906.528H1130.86C1130.96 907.966 1131.37 909.168 1132.1 910.131C1132.84 911.081 1133.82 911.801 1135.05 912.289C1136.29 912.764 1137.7 913.002 1139.26 913.002C1140.8 913.002 1142.13 912.778 1143.26 912.331C1144.41 911.884 1145.3 911.263 1145.93 910.467C1146.55 909.67 1146.87 908.756 1146.87 907.722C1146.87 906.758 1146.58 905.948 1146.01 905.292C1145.45 904.635 1144.63 904.076 1143.54 903.615C1142.46 903.154 1141.14 902.735 1139.58 902.358L1134.9 901.185C1131.29 900.305 1128.43 898.929 1126.34 897.058C1124.24 895.186 1123.2 892.665 1123.21 889.494C1123.2 886.896 1123.89 884.626 1125.29 882.685C1126.7 880.743 1128.63 879.228 1131.09 878.138C1133.55 877.049 1136.34 876.504 1139.47 876.504C1142.66 876.504 1145.44 877.049 1147.81 878.138C1150.2 879.228 1152.06 880.743 1153.38 882.685C1154.71 884.626 1155.4 886.875 1155.44 889.431H1146.74Z" fill="white"/>
<path d="M1087.34 920V877.091H1116.25V884.571H1096.41V894.795H1114.76V902.275H1096.41V912.52H1116.34V920H1087.34Z" fill="white"/>
<path d="M1080.62 898.546C1080.62 903.225 1079.73 907.206 1077.96 910.488C1076.2 913.771 1073.8 916.278 1070.75 918.01C1067.72 919.728 1064.31 920.587 1060.53 920.587C1056.71 920.587 1053.29 919.721 1050.26 917.989C1047.23 916.257 1044.83 913.75 1043.07 910.467C1041.31 907.185 1040.43 903.211 1040.43 898.546C1040.43 893.867 1041.31 889.886 1043.07 886.603C1044.83 883.321 1047.23 880.821 1050.26 879.103C1053.29 877.371 1056.71 876.505 1060.53 876.505C1064.31 876.505 1067.72 877.371 1070.75 879.103C1073.8 880.821 1076.2 883.321 1077.96 886.603C1079.73 889.886 1080.62 893.867 1080.62 898.546ZM1071.42 898.546C1071.42 895.515 1070.97 892.959 1070.06 890.877C1069.16 888.796 1067.9 887.218 1066.27 886.142C1064.63 885.067 1062.72 884.529 1060.53 884.529C1058.33 884.529 1056.42 885.067 1054.79 886.142C1053.15 887.218 1051.88 888.796 1050.97 890.877C1050.08 892.959 1049.63 895.515 1049.63 898.546C1049.63 901.577 1050.08 904.133 1050.97 906.214C1051.88 908.295 1053.15 909.874 1054.79 910.949C1056.42 912.025 1058.33 912.563 1060.53 912.563C1062.72 912.563 1064.63 912.025 1066.27 910.949C1067.9 909.874 1069.16 908.295 1070.06 906.214C1070.97 904.133 1071.42 901.577 1071.42 898.546ZM1054.51 872.859L1049.57 872.796C1049.57 870.128 1050.22 868.082 1051.54 866.657C1052.85 865.233 1054.46 864.513 1056.38 864.499C1057.36 864.499 1058.19 864.66 1058.89 864.981C1059.59 865.288 1060.23 865.652 1060.8 866.071C1061.37 866.49 1061.92 866.86 1062.43 867.181C1062.95 867.488 1063.51 867.642 1064.11 867.642C1064.92 867.628 1065.53 867.328 1065.95 866.741C1066.39 866.141 1066.6 865.358 1066.6 864.395L1071.48 864.541C1071.46 867.181 1070.79 869.22 1069.47 870.659C1068.16 872.084 1066.55 872.803 1064.65 872.817C1063.62 872.831 1062.75 872.677 1062.03 872.356C1061.34 872.035 1060.72 871.672 1060.19 871.267C1059.66 870.848 1059.14 870.478 1058.64 870.156C1058.14 869.835 1057.57 869.674 1056.94 869.674C1056.22 869.674 1055.63 869.961 1055.18 870.533C1054.74 871.106 1054.51 871.881 1054.51 872.859Z" fill="white"/>
<path d="M1034.68 892.113H1025.51C1025.34 890.926 1025 889.871 1024.48 888.949C1023.96 888.013 1023.3 887.217 1022.49 886.561C1021.68 885.904 1020.74 885.401 1019.68 885.052C1018.63 884.703 1017.49 884.528 1016.27 884.528C1014.04 884.528 1012.11 885.08 1010.46 886.184C1008.81 887.273 1007.54 888.865 1006.63 890.961C1005.72 893.042 1005.27 895.57 1005.27 898.545C1005.27 901.604 1005.72 904.174 1006.63 906.255C1007.55 908.337 1008.83 909.908 1010.48 910.969C1012.13 912.031 1014.04 912.562 1016.2 912.562C1017.42 912.562 1018.54 912.401 1019.58 912.08C1020.62 911.759 1021.55 911.291 1022.36 910.676C1023.17 910.048 1023.84 909.286 1024.37 908.392C1024.92 907.498 1025.3 906.479 1025.51 905.333L1034.68 905.375C1034.44 907.345 1033.85 909.244 1032.9 911.074C1031.97 912.89 1030.7 914.517 1029.11 915.956C1027.53 917.381 1025.64 918.512 1023.45 919.35C1021.27 920.174 1018.81 920.586 1016.06 920.586C1012.23 920.586 1008.81 919.72 1005.79 917.988C1002.79 916.256 1000.41 913.749 998.666 910.467C996.934 907.184 996.068 903.21 996.068 898.545C996.068 893.866 996.948 889.885 998.708 886.603C1000.47 883.32 1002.86 880.82 1005.87 879.102C1008.89 877.37 1012.28 876.504 1016.06 876.504C1018.54 876.504 1020.85 876.853 1022.97 877.551C1025.11 878.25 1027 879.27 1028.65 880.61C1030.3 881.937 1031.64 883.565 1032.67 885.492C1033.72 887.42 1034.39 889.627 1034.68 892.113ZM1013.81 919.874H1017.92L1017.59 921.697C1019.02 921.92 1020.2 922.458 1021.11 923.31C1022.03 924.162 1022.49 925.321 1022.51 926.788C1022.52 928.869 1021.56 930.524 1019.62 931.754C1017.68 932.997 1014.95 933.618 1011.45 933.618L1011.36 929.637C1013.12 929.637 1014.5 929.421 1015.49 928.988C1016.5 928.569 1017.02 927.912 1017.06 927.018C1017.09 926.166 1016.76 925.517 1016.08 925.07C1015.39 924.623 1014.32 924.309 1012.87 924.127L1013.81 919.874Z" fill="white"/>
<path d="M962.1 920H952.378L967.191 877.091H978.882L993.674 920H983.953L973.204 886.896H972.869L962.1 920ZM961.492 903.134H984.456V910.215H961.492V903.134Z" fill="white"/>
<path d="M949.005 892.113H939.828C939.661 890.926 939.318 889.871 938.802 888.949C938.285 888.013 937.621 887.217 936.811 886.561C936.001 885.904 935.065 885.401 934.004 885.052C932.956 884.703 931.818 884.528 930.589 884.528C928.368 884.528 926.433 885.08 924.785 886.184C923.137 887.273 921.859 888.865 920.951 890.961C920.043 893.042 919.589 895.57 919.589 898.545C919.589 901.604 920.043 904.174 920.951 906.255C921.873 908.337 923.158 909.908 924.806 910.969C926.454 912.031 928.361 912.562 930.526 912.562C931.741 912.562 932.865 912.401 933.899 912.08C934.947 911.759 935.875 911.291 936.685 910.676C937.496 910.048 938.166 909.286 938.697 908.392C939.242 907.498 939.619 906.479 939.828 905.333L949.005 905.375C948.768 907.345 948.174 909.244 947.224 911.074C946.288 912.89 945.024 914.517 943.432 915.956C941.854 917.381 939.968 918.512 937.775 919.35C935.596 920.174 933.131 920.586 930.379 920.586C926.552 920.586 923.13 919.72 920.113 917.988C917.11 916.256 914.735 913.749 912.989 910.467C911.257 907.184 910.391 903.21 910.391 898.545C910.391 893.866 911.271 889.885 913.031 886.603C914.791 883.32 917.179 880.82 920.196 879.102C923.214 877.37 926.608 876.504 930.379 876.504C932.865 876.504 935.17 876.853 937.293 877.551C939.43 878.25 941.323 879.27 942.971 880.61C944.619 881.937 945.96 883.565 946.994 885.492C948.041 887.42 948.712 889.627 949.005 892.113Z" fill="white"/>
<path d="M904.425 898.545C904.425 903.224 903.538 907.205 901.764 910.488C900.004 913.77 897.602 916.277 894.557 918.009C891.526 919.727 888.118 920.586 884.332 920.586C880.519 920.586 877.097 919.72 874.066 917.988C871.035 916.256 868.64 913.749 866.88 910.467C865.12 907.184 864.24 903.21 864.24 898.545C864.24 893.866 865.12 889.885 866.88 886.603C868.64 883.32 871.035 880.82 874.066 879.102C877.097 877.37 880.519 876.504 884.332 876.504C888.118 876.504 891.526 877.37 894.557 879.102C897.602 880.82 900.004 883.32 901.764 886.603C903.538 889.885 904.425 893.866 904.425 898.545ZM895.227 898.545C895.227 895.514 894.773 892.958 893.865 890.877C892.971 888.796 891.707 887.217 890.073 886.142C888.439 885.066 886.525 884.528 884.332 884.528C882.139 884.528 880.226 885.066 878.592 886.142C876.957 887.217 875.686 888.796 874.778 890.877C873.885 892.958 873.438 895.514 873.438 898.545C873.438 901.576 873.885 904.132 874.778 906.213C875.686 908.295 876.957 909.873 878.592 910.949C880.226 912.024 882.139 912.562 884.332 912.562C886.525 912.562 888.439 912.024 890.073 910.949C891.707 909.873 892.971 908.295 893.865 906.213C894.773 904.132 895.227 901.576 895.227 898.545Z" fill="white"/>
<path d="M833.189 920V877.091H842.262V912.52H860.657V920H833.189Z" fill="white"/>
<path d="M783.408 920V877.091H812.322V884.571H792.48V894.795H810.834V902.275H792.48V912.52H812.405V920H783.408Z" fill="white"/>
<path d="M754.369 889.431C754.202 887.741 753.482 886.428 752.211 885.492C750.94 884.556 749.215 884.088 747.036 884.088C745.555 884.088 744.305 884.298 743.286 884.717C742.266 885.122 741.484 885.688 740.939 886.414C740.408 887.14 740.143 887.964 740.143 888.886C740.115 889.655 740.276 890.325 740.625 890.898C740.988 891.47 741.484 891.966 742.112 892.385C742.741 892.79 743.467 893.147 744.291 893.454C745.115 893.747 745.995 893.999 746.931 894.208L750.786 895.13C752.658 895.549 754.376 896.108 755.94 896.806C757.505 897.504 758.86 898.364 760.005 899.383C761.15 900.403 762.037 901.604 762.666 902.987C763.309 904.37 763.637 905.955 763.651 907.743C763.637 910.369 762.966 912.646 761.639 914.573C760.326 916.487 758.427 917.974 755.94 919.036C753.468 920.083 750.486 920.607 746.994 920.607C743.53 920.607 740.513 920.076 737.943 919.015C735.387 917.953 733.389 916.382 731.951 914.301C730.526 912.206 729.779 909.615 729.709 906.528H738.488C738.586 907.966 738.998 909.168 739.724 910.131C740.464 911.081 741.449 911.801 742.678 912.289C743.921 912.764 745.325 913.002 746.889 913.002C748.426 913.002 749.76 912.778 750.891 912.331C752.036 911.884 752.923 911.263 753.552 910.467C754.181 909.67 754.495 908.756 754.495 907.722C754.495 906.758 754.208 905.948 753.636 905.292C753.077 904.635 752.253 904.076 751.164 903.615C750.088 903.154 748.768 902.735 747.204 902.358L742.531 901.185C738.914 900.305 736.057 898.929 733.962 897.058C731.867 895.186 730.826 892.665 730.84 889.494C730.826 886.896 731.518 884.626 732.915 882.685C734.325 880.743 736.26 879.228 738.718 878.138C741.177 877.049 743.97 876.504 747.099 876.504C750.284 876.504 753.063 877.049 755.438 878.138C757.826 879.228 759.684 880.743 761.011 882.685C762.338 884.626 763.022 886.875 763.064 889.431H754.369Z" fill="white"/>
<path d="M695.332 920H685.611L700.424 877.091H712.115L726.907 920H717.185L706.437 886.896H706.102L695.332 920ZM694.725 903.134H717.688V910.215H694.725V903.134Z" fill="white"/>
<path d="M662.643 920H647.432V877.091H662.768C667.084 877.091 670.8 877.95 673.915 879.668C677.029 881.372 679.425 883.823 681.101 887.022C682.791 890.221 683.636 894.048 683.636 898.503C683.636 902.973 682.791 906.814 681.101 910.027C679.425 913.239 677.015 915.705 673.873 917.423C670.744 919.141 667.001 920 662.643 920ZM656.504 912.227H662.265C664.947 912.227 667.203 911.752 669.033 910.802C670.877 909.838 672.259 908.351 673.181 906.339C674.117 904.314 674.585 901.702 674.585 898.503C674.585 895.333 674.117 892.742 673.181 890.73C672.259 888.719 670.884 887.238 669.054 886.289C667.224 885.339 664.968 884.864 662.286 884.864H656.504V912.227Z" fill="white"/>
<path d="M639.936 877.091V920H632.1L613.432 892.993H613.118V920H604.046V877.091H612.008L630.529 904.077H630.906V877.091H639.936Z" fill="white"/>
<path d="M567.92 920V877.091H596.833V884.571H576.992V894.795H595.346V902.275H576.992V912.52H596.917V920H567.92Z" fill="white"/>
<path d="M531.537 877.091L541.908 909.692H542.306L552.698 877.091H562.755L547.963 920H536.272L521.459 877.091H531.537Z" fill="white"/>
<path d="M456.143 877.091H467.331L479.148 905.92H479.65L491.467 877.091H502.655V920H493.856V892.071H493.499L482.395 919.79H476.403L465.298 891.967H464.942V920H456.143V877.091Z" fill="white"/>
<path d="M420.017 920V877.091H448.93V884.571H429.089V894.795H447.442V902.275H429.089V912.52H449.014V920H420.017Z" fill="white"/>
<path d="M390.978 889.431C390.81 887.741 390.091 886.428 388.82 885.492C387.548 884.556 385.823 884.088 383.644 884.088C382.164 884.088 380.914 884.298 379.894 884.717C378.874 885.122 378.092 885.688 377.547 886.414C377.017 887.14 376.751 887.964 376.751 888.886C376.723 889.655 376.884 890.325 377.233 890.898C377.596 891.47 378.092 891.966 378.721 892.385C379.349 892.79 380.076 893.147 380.9 893.454C381.724 893.747 382.604 893.999 383.54 894.208L387.395 895.13C389.266 895.549 390.985 896.108 392.549 896.806C394.113 897.504 395.468 898.364 396.614 899.383C397.759 900.403 398.646 901.604 399.274 902.987C399.917 904.37 400.245 905.955 400.259 907.743C400.245 910.369 399.575 912.646 398.248 914.573C396.935 916.487 395.035 917.974 392.549 919.036C390.077 920.083 387.094 920.607 383.603 920.607C380.139 920.607 377.121 920.076 374.551 919.015C371.995 917.953 369.998 916.382 368.559 914.301C367.134 912.206 366.387 909.615 366.317 906.528H375.096C375.194 907.966 375.606 909.168 376.332 910.131C377.073 911.081 378.057 911.801 379.286 912.289C380.53 912.764 381.933 913.002 383.498 913.002C385.034 913.002 386.368 912.778 387.5 912.331C388.645 911.884 389.532 911.263 390.16 910.467C390.789 909.67 391.103 908.756 391.103 907.722C391.103 906.758 390.817 905.948 390.244 905.292C389.686 904.635 388.861 904.076 387.772 903.615C386.696 903.154 385.376 902.735 383.812 902.358L379.14 901.185C375.522 900.305 372.666 898.929 370.571 897.058C368.475 895.186 367.435 892.665 367.449 889.494C367.435 886.896 368.126 884.626 369.523 882.685C370.934 880.743 372.868 879.228 375.327 878.138C377.785 877.049 380.579 876.504 383.707 876.504C386.892 876.504 389.672 877.049 392.046 878.138C394.435 879.228 396.292 880.743 397.619 882.685C398.946 884.626 399.631 886.875 399.672 889.431H390.978Z" fill="white"/>
<path d="M331.574 920V877.091H360.488V884.571H340.646V894.795H359V902.275H340.646V912.52H360.571V920H331.574Z" fill="white"/>
<path d="M324.854 898.546C324.854 903.225 323.967 907.206 322.193 910.488C320.433 913.771 318.031 916.278 314.986 918.01C311.955 919.728 308.546 920.587 304.761 920.587C300.948 920.587 297.526 919.721 294.495 917.989C291.464 916.257 289.068 913.75 287.308 910.467C285.548 907.185 284.668 903.211 284.668 898.546C284.668 893.867 285.548 889.886 287.308 886.603C289.068 883.321 291.464 880.821 294.495 879.103C297.526 877.371 300.948 876.505 304.761 876.505C308.546 876.505 311.955 877.371 314.986 879.103C318.031 880.821 320.433 883.321 322.193 886.603C323.967 889.886 324.854 893.867 324.854 898.546ZM315.656 898.546C315.656 895.515 315.202 892.959 314.294 890.877C313.4 888.796 312.136 887.218 310.502 886.142C308.868 885.067 306.954 884.529 304.761 884.529C302.568 884.529 300.655 885.067 299.02 886.142C297.386 887.218 296.115 888.796 295.207 890.877C294.313 892.959 293.866 895.515 293.866 898.546C293.866 901.577 294.313 904.133 295.207 906.214C296.115 908.295 297.386 909.874 299.02 910.949C300.655 912.025 302.568 912.563 304.761 912.563C306.954 912.563 308.868 912.025 310.502 910.949C312.136 909.874 313.4 908.295 314.294 906.214C315.202 904.133 315.656 901.577 315.656 898.546ZM298.748 872.859L293.803 872.796C293.803 870.128 294.46 868.082 295.773 866.657C297.086 865.233 298.699 864.513 300.613 864.499C301.59 864.499 302.429 864.66 303.127 864.981C303.825 865.288 304.461 865.652 305.034 866.071C305.606 866.49 306.151 866.86 306.668 867.181C307.185 867.488 307.743 867.642 308.344 867.642C309.154 867.628 309.769 867.328 310.188 866.741C310.621 866.141 310.837 865.358 310.837 864.395L315.719 864.541C315.691 867.181 315.02 869.22 313.708 870.659C312.395 872.084 310.788 872.803 308.889 872.817C307.855 872.831 306.982 872.677 306.27 872.356C305.571 872.035 304.957 871.672 304.426 871.267C303.895 870.848 303.378 870.478 302.875 870.156C302.373 869.835 301.807 869.674 301.178 869.674C300.452 869.674 299.865 869.961 299.418 870.533C298.971 871.106 298.748 871.881 298.748 872.859Z" fill="white"/>
<path d="M278.917 892.113H269.74C269.573 890.926 269.231 889.871 268.714 888.949C268.197 888.013 267.533 887.217 266.723 886.561C265.913 885.904 264.977 885.401 263.916 885.052C262.868 884.703 261.73 884.528 260.501 884.528C258.28 884.528 256.345 885.08 254.697 886.184C253.049 887.273 251.771 888.865 250.863 890.961C249.955 893.042 249.501 895.57 249.501 898.545C249.501 901.604 249.955 904.174 250.863 906.255C251.785 908.337 253.07 909.908 254.718 910.969C256.366 912.031 258.273 912.562 260.438 912.562C261.653 912.562 262.777 912.401 263.811 912.08C264.859 911.759 265.787 911.291 266.598 910.676C267.408 910.048 268.078 909.286 268.609 908.392C269.154 907.498 269.531 906.479 269.74 905.333L278.917 905.375C278.68 907.345 278.086 909.244 277.136 911.074C276.2 912.89 274.936 914.517 273.344 915.956C271.766 917.381 269.88 918.512 267.687 919.35C265.508 920.174 263.043 920.586 260.291 920.586C256.464 920.586 253.042 919.72 250.025 917.988C247.022 916.256 244.647 913.749 242.901 910.467C241.169 907.184 240.303 903.21 240.303 898.545C240.303 893.866 241.183 889.885 242.943 886.603C244.703 883.32 247.092 880.82 250.109 879.102C253.126 877.37 256.52 876.504 260.291 876.504C262.777 876.504 265.082 876.853 267.205 877.551C269.342 878.25 271.235 879.27 272.883 880.61C274.531 881.937 275.872 883.565 276.906 885.492C277.953 887.42 278.624 889.627 278.917 892.113ZM258.049 919.874H262.156L261.821 921.697C263.259 921.92 264.433 922.458 265.341 923.31C266.262 924.162 266.73 925.321 266.744 926.788C266.758 928.869 265.794 930.524 263.853 931.754C261.911 932.997 259.188 933.618 255.682 933.618L255.598 929.637C257.358 929.637 258.734 929.421 259.725 928.988C260.731 928.569 261.255 927.912 261.297 927.018C261.325 926.166 260.997 925.517 260.312 925.07C259.628 924.623 258.559 924.309 257.106 924.127L258.049 919.874Z" fill="white"/>
<path d="M224.521 877.091H233.594V904.957C233.594 908.085 232.846 910.823 231.352 913.17C229.871 915.516 227.797 917.346 225.129 918.659C222.461 919.958 219.353 920.608 215.806 920.608C212.244 920.608 209.129 919.958 206.461 918.659C203.793 917.346 201.719 915.516 200.238 913.17C198.758 910.823 198.018 908.085 198.018 904.957V877.091H207.09V904.181C207.09 905.816 207.446 907.268 208.158 908.539C208.885 909.81 209.904 910.809 211.217 911.535C212.53 912.262 214.06 912.625 215.806 912.625C217.566 912.625 219.095 912.262 220.394 911.535C221.707 910.809 222.72 909.81 223.432 908.539C224.158 907.268 224.521 905.816 224.521 904.181V877.091Z" fill="white"/>
<path d="M164.542 920V877.091H173.614V912.52H192.01V920H164.542Z" fill="white"/>
<path d="M157.822 898.545C157.822 903.224 156.935 907.205 155.161 910.488C153.401 913.77 150.998 916.277 147.953 918.009C144.922 919.727 141.514 920.586 137.729 920.586C133.916 920.586 130.494 919.72 127.463 917.988C124.432 916.256 122.036 913.749 120.276 910.467C118.516 907.184 117.636 903.21 117.636 898.545C117.636 893.866 118.516 889.885 120.276 886.603C122.036 883.32 124.432 880.82 127.463 879.102C130.494 877.37 133.916 876.504 137.729 876.504C141.514 876.504 144.922 877.37 147.953 879.102C150.998 880.82 153.401 883.32 155.161 886.603C156.935 889.885 157.822 893.866 157.822 898.545ZM148.624 898.545C148.624 895.514 148.17 892.958 147.262 890.877C146.368 888.796 145.104 887.217 143.47 886.142C141.835 885.066 139.922 884.528 137.729 884.528C135.536 884.528 133.622 885.066 131.988 886.142C130.354 887.217 129.083 888.796 128.175 890.877C127.281 892.958 126.834 895.514 126.834 898.545C126.834 901.576 127.281 904.132 128.175 906.213C129.083 908.295 130.354 909.873 131.988 910.949C133.622 912.024 135.536 912.562 137.729 912.562C139.922 912.562 141.835 912.024 143.47 910.949C145.104 909.873 146.368 908.295 147.262 906.213C148.17 904.132 148.624 901.576 148.624 898.545Z" fill="white"/>
<path d="M103.007 889.431C102.839 887.741 102.12 886.428 100.849 885.492C99.5777 884.556 97.8527 884.088 95.6737 884.088C94.1932 884.088 92.943 884.298 91.9234 884.717C90.9037 885.122 90.1215 885.688 89.5768 886.414C89.046 887.14 88.7806 887.964 88.7806 888.886C88.7527 889.655 88.9133 890.325 89.2625 890.898C89.6257 891.47 90.1215 891.966 90.7501 892.385C91.3786 892.79 92.105 893.147 92.9291 893.454C93.7532 893.747 94.6331 893.999 95.569 894.208L99.4241 895.13C101.296 895.549 103.014 896.108 104.578 896.806C106.143 897.504 107.497 898.364 108.643 899.383C109.788 900.403 110.675 901.604 111.304 902.987C111.946 904.37 112.274 905.955 112.288 907.743C112.274 910.369 111.604 912.646 110.277 914.573C108.964 916.487 107.064 917.974 104.578 919.036C102.106 920.083 99.1238 920.607 95.6318 920.607C92.1678 920.607 89.1508 920.076 86.5807 919.015C84.0246 917.953 82.0272 916.382 80.5885 914.301C79.1638 912.206 78.4165 909.615 78.3467 906.528H87.1254C87.2232 907.966 87.6353 909.168 88.3616 910.131C89.1019 911.081 90.0866 911.801 91.3158 912.289C92.5589 912.764 93.9627 913.002 95.5271 913.002C97.0635 913.002 98.3975 912.778 99.5289 912.331C100.674 911.884 101.561 911.263 102.19 910.467C102.818 909.67 103.133 908.756 103.133 907.722C103.133 906.758 102.846 905.948 102.274 905.292C101.715 904.635 100.891 904.076 99.8012 903.615C98.7257 903.154 97.4057 902.735 95.8414 902.358L91.1691 901.185C87.5515 900.305 84.695 898.929 82.5999 897.058C80.5047 895.186 79.4641 892.665 79.4781 889.494C79.4641 886.896 80.1555 884.626 81.5523 882.685C82.963 880.743 84.8976 879.228 87.3559 878.138C89.8142 877.049 92.6078 876.504 95.7366 876.504C98.9213 876.504 101.701 877.049 104.075 878.138C106.464 879.228 108.322 880.743 109.649 882.685C110.975 884.626 111.66 886.875 111.702 889.431H103.007Z" fill="white"/>
</svg>
